<svg width="646" height="412" viewBox="0 0 646 412" fill="none" xmlns="http://www.w3.org/2000/svg">
<g clip-path="url(#clip0_57_219)">
<rect width="646" height="412" fill="#050029"/>
<rect width="646" height="412" fill="#5B66FF" fill-opacity="0.2"/>
<g style="mix-blend-mode:color-dodge" clip-path="url(#clip1_57_219)">
<path style="mix-blend-mode:screen" d="M402.502 655C447.165 655 483.371 319.443 483.371 -94.4876C483.371 -508.418 447.165 -843.975 402.502 -843.975C357.839 -843.975 321.633 -508.418 321.633 -94.4876C321.633 319.443 357.839 655 402.502 655Z" fill="url(#paint0_radial_57_219)"/>
<path style="mix-blend-mode:screen" d="M437.429 -57.0128C1160.13 -235.801 1730.36 -397.606 1711.07 -418.414C1691.78 -439.223 1090.27 -311.154 367.57 -132.366C-355.133 46.4221 -925.361 208.227 -906.07 229.035C-886.779 249.844 -285.274 121.775 437.429 -57.0128Z" fill="url(#paint1_radial_57_219)"/>
<path style="mix-blend-mode:screen" d="M1631.74 303.671C1655.47 284.124 1124.37 90.0137 445.488 -129.887C-233.39 -349.788 -802.963 -512.207 -826.69 -492.661C-850.417 -473.114 -319.313 -279.004 359.564 -59.1033C1038.44 160.798 1608.02 323.217 1631.74 303.671Z" fill="url(#paint2_radial_57_219)"/>
<path style="mix-blend-mode:screen" d="M402.502 655C447.165 655 483.371 319.443 483.371 -94.4876C483.371 -508.418 447.165 -843.975 402.502 -843.975C357.839 -843.975 321.633 -508.418 321.633 -94.4876C321.633 319.443 357.839 655 402.502 655Z" fill="url(#paint3_radial_57_219)"/>
<path style="mix-blend-mode:screen" d="M437.429 -57.0128C1160.13 -235.801 1730.36 -397.606 1711.07 -418.414C1691.78 -439.223 1090.27 -311.154 367.57 -132.366C-355.133 46.4221 -925.361 208.227 -906.07 229.035C-886.779 249.844 -285.274 121.775 437.429 -57.0128Z" fill="url(#paint4_radial_57_219)"/>
<path style="mix-blend-mode:screen" d="M1631.74 303.671C1655.47 284.124 1124.37 90.0137 445.488 -129.887C-233.39 -349.788 -802.963 -512.207 -826.69 -492.661C-850.417 -473.114 -319.313 -279.004 359.564 -59.1033C1038.44 160.798 1608.02 323.217 1631.74 303.671Z" fill="url(#paint5_radial_57_219)"/>
<path style="mix-blend-mode:screen" d="M402.502 467.156C435.974 467.156 463.108 215.7 463.108 -94.4876C463.108 -404.675 435.974 -656.132 402.502 -656.132C369.031 -656.132 341.896 -404.675 341.896 -94.4876C341.896 215.7 369.031 467.156 402.502 467.156Z" fill="url(#paint6_radial_57_219)"/>
<path style="mix-blend-mode:screen" d="M428.677 -66.453C970.251 -200.432 1397.56 -321.685 1383.1 -337.279C1368.65 -352.874 917.896 -256.904 376.323 -122.925C-165.251 11.0533 -592.562 132.306 -578.105 147.901C-563.647 163.495 -112.896 67.5258 428.677 -66.453Z" fill="url(#paint7_radial_57_219)"/>
<path style="mix-blend-mode:screen" d="M1323.66 203.879C1341.45 189.23 943.454 43.7682 434.723 -121.019C-74.0084 -285.806 -500.831 -407.518 -518.613 -392.869C-536.395 -378.22 -138.402 -232.759 370.329 -67.9714C879.06 96.816 1305.88 218.527 1323.66 203.879Z" fill="url(#paint8_radial_57_219)"/>
<path style="mix-blend-mode:screen" d="M453.026 -80.0453C733.91 -339.77 938.885 -556.877 910.852 -564.967C882.819 -573.057 632.394 -369.066 351.511 -109.341C70.6275 150.384 -134.348 367.491 -106.315 375.581C-78.2824 383.67 172.143 179.68 453.026 -80.0453Z" fill="url(#paint9_radial_57_219)"/>
<path style="mix-blend-mode:screen" d="M903.643 377.683C931.804 369.712 730.282 151.744 453.533 -109.162C176.784 -370.069 -70.3942 -575.114 -98.5546 -567.143C-126.715 -559.172 74.8062 -341.204 351.555 -80.2976C628.305 180.609 875.483 385.654 903.643 377.683Z" fill="url(#paint10_radial_57_219)"/>
<path style="mix-blend-mode:screen" d="M453.026 -80.0453C733.91 -339.77 938.885 -556.877 910.852 -564.967C882.819 -573.057 632.394 -369.066 351.511 -109.341C70.6275 150.384 -134.348 367.491 -106.315 375.581C-78.2824 383.67 172.143 179.68 453.026 -80.0453Z" fill="url(#paint11_radial_57_219)"/>
<path style="mix-blend-mode:screen" d="M903.643 377.683C931.804 369.712 730.282 151.744 453.533 -109.162C176.784 -370.069 -70.3942 -575.114 -98.5546 -567.143C-126.715 -559.172 74.8062 -341.204 351.555 -80.2976C628.305 180.609 875.483 385.654 903.643 377.683Z" fill="url(#paint12_radial_57_219)"/>
<path style="mix-blend-mode:screen" d="M440.277 -83.7247C650.749 -278.342 804.353 -441.022 783.361 -447.08C762.37 -453.138 574.731 -300.28 364.259 -105.662C153.788 88.9555 0.183749 251.635 21.1754 257.693C42.167 263.751 229.805 110.893 440.277 -83.7247Z" fill="url(#paint13_radial_57_219)"/>
<path style="mix-blend-mode:screen" d="M778.029 259.259C799.116 253.29 648.1 89.9655 440.726 -105.537C233.352 -301.04 48.1473 -454.688 27.0602 -448.719C5.97307 -442.751 156.989 -279.426 364.363 -83.9229C571.737 111.58 756.942 265.228 778.029 259.259Z" fill="url(#paint14_radial_57_219)"/>
<path style="mix-blend-mode:screen" d="M430.705 -77.8541C751.87 -222.276 999.589 -346.853 984 -356.103C968.411 -365.354 695.417 -255.776 374.252 -111.354C53.0862 33.0681 -194.632 157.644 -179.043 166.895C-163.454 176.146 109.539 66.568 430.705 -77.8541Z" fill="url(#paint15_radial_57_219)"/>
<path style="mix-blend-mode:screen" d="M1109.89 63.2198C1119.31 51.9612 810.08 -27.8964 419.205 -115.147C28.3308 -202.398 -296.171 -264.001 -305.589 -252.743C-315.006 -241.484 -5.77461 -161.627 385.1 -74.376C775.975 12.8747 1100.48 74.4784 1109.89 63.2198Z" fill="url(#paint16_radial_57_219)"/>
<path style="mix-blend-mode:screen" d="M563.264 286.469C586.769 284.506 550.595 106.387 482.466 -111.373C414.336 -329.133 340.052 -504.071 316.547 -502.108C293.041 -500.146 329.216 -322.026 397.345 -104.267C465.475 113.493 539.758 288.431 563.264 286.469Z" fill="url(#paint17_radial_57_219)"/>
<path style="mix-blend-mode:screen" d="M430.705 -77.8541C751.87 -222.276 999.589 -346.853 984 -356.103C968.411 -365.354 695.417 -255.776 374.252 -111.354C53.0862 33.0681 -194.632 157.644 -179.043 166.895C-163.454 176.146 109.539 66.568 430.705 -77.8541Z" fill="url(#paint18_radial_57_219)"/>
<path style="mix-blend-mode:screen" d="M1109.89 63.2198C1119.31 51.9612 810.08 -27.8964 419.205 -115.147C28.3308 -202.398 -296.171 -264.001 -305.589 -252.743C-315.006 -241.484 -5.77461 -161.627 385.1 -74.376C775.975 12.8747 1100.48 74.4784 1109.89 63.2198Z" fill="url(#paint19_radial_57_219)"/>
<path style="mix-blend-mode:screen" d="M563.264 286.469C586.769 284.506 550.595 106.387 482.466 -111.373C414.336 -329.133 340.052 -504.071 316.547 -502.108C293.041 -500.146 329.216 -322.026 397.345 -104.267C465.475 113.493 539.758 288.431 563.264 286.469Z" fill="url(#paint20_radial_57_219)"/>
<path style="mix-blend-mode:screen" d="M423.633 -82.0501C664.308 -190.277 849.942 -283.633 838.258 -290.566C826.575 -297.499 621.998 -215.384 381.323 -107.157C140.649 1.06958 -44.9846 94.4251 -33.3011 101.358C-21.6175 108.291 182.959 26.1767 423.633 -82.0501Z" fill="url(#paint21_radial_57_219)"/>
<path style="mix-blend-mode:screen" d="M932.519 23.626C939.577 15.188 707.847 -44.6565 414.934 -110.04C122.02 -175.424 -121.155 -221.588 -128.213 -213.15C-135.272 -204.712 96.4595 -144.867 389.373 -79.4836C682.286 -14.0998 925.46 32.064 932.519 23.626Z" fill="url(#paint22_radial_57_219)"/>
<path style="mix-blend-mode:screen" d="M492.44 200.206C510.018 198.776 484.026 65.62 434.384 -97.2058C384.742 -260.032 330.25 -390.869 312.672 -389.439C295.094 -388.009 321.087 -254.853 370.729 -92.0272C420.371 70.7986 474.863 201.636 492.44 200.206Z" fill="url(#paint23_radial_57_219)"/>
<path style="mix-blend-mode:screen" d="M421.579 455.369C995.084 455.369 1460 215.206 1460 -81.0498C1460 -377.306 995.084 -617.469 421.579 -617.469C-151.927 -617.469 -616.846 -377.306 -616.846 -81.0498C-616.846 215.206 -151.927 455.369 421.579 455.369Z" fill="url(#paint24_radial_57_219)"/>
<path style="mix-blend-mode:screen" d="M421.578 166.39C686.126 166.39 900.584 55.6075 900.584 -81.05C900.584 -217.707 686.126 -328.49 421.578 -328.49C157.03 -328.49 -57.4277 -217.707 -57.4277 -81.05C-57.4277 55.6075 157.03 166.39 421.578 166.39Z" fill="url(#paint25_radial_57_219)"/>
</g>
</g>
<defs>
<radialGradient id="paint0_radial_57_219" cx="0" cy="0" r="1" gradientUnits="userSpaceOnUse" gradientTransform="translate(516.77 -104.439) scale(83.3952 748.506)">
<stop offset="0.04" stop-color="#BDBDBD"/>
<stop offset="0.05" stop-color="#BABABA"/>
<stop offset="0.12" stop-color="#8F8F8F"/>
<stop offset="0.2" stop-color="#696969"/>
<stop offset="0.28" stop-color="#484848"/>
<stop offset="0.37" stop-color="#2E2E2E"/>
<stop offset="0.47" stop-color="#191919"/>
<stop offset="0.58" stop-color="#0B0B0B"/>
<stop offset="0.72" stop-color="#030303"/>
<stop offset="0.94"/>
</radialGradient>
<radialGradient id="paint1_radial_57_219" cx="0" cy="0" r="1" gradientTransform="matrix(36.0208 38.8537 -1306.86 323.301 177.225 -379.626)" gradientUnits="userSpaceOnUse">
<stop offset="0.04" stop-color="#BDBDBD"/>
<stop offset="0.05" stop-color="#BABABA"/>
<stop offset="0.12" stop-color="#8F8F8F"/>
<stop offset="0.2" stop-color="#696969"/>
<stop offset="0.28" stop-color="#484848"/>
<stop offset="0.37" stop-color="#2E2E2E"/>
<stop offset="0.47" stop-color="#191919"/>
<stop offset="0.58" stop-color="#0B0B0B"/>
<stop offset="0.72" stop-color="#030303"/>
<stop offset="0.94"/>
</radialGradient>
<radialGradient id="paint2_radial_57_219" cx="0" cy="0" r="1" gradientTransform="matrix(-44.3039 36.4977 -1227.61 -397.645 780.528 -342.34)" gradientUnits="userSpaceOnUse">
<stop offset="0.04" stop-color="#BDBDBD"/>
<stop offset="0.05" stop-color="#BABABA"/>
<stop offset="0.12" stop-color="#8F8F8F"/>
<stop offset="0.2" stop-color="#696969"/>
<stop offset="0.28" stop-color="#484848"/>
<stop offset="0.37" stop-color="#2E2E2E"/>
<stop offset="0.47" stop-color="#191919"/>
<stop offset="0.58" stop-color="#0B0B0B"/>
<stop offset="0.72" stop-color="#030303"/>
<stop offset="0.94"/>
</radialGradient>
<radialGradient id="paint3_radial_57_219" cx="0" cy="0" r="1" gradientUnits="userSpaceOnUse" gradientTransform="translate(516.77 -104.439) scale(83.3952 748.506)">
<stop offset="0.04" stop-color="#BDBDBD"/>
<stop offset="0.05" stop-color="#BABABA"/>
<stop offset="0.12" stop-color="#8F8F8F"/>
<stop offset="0.2" stop-color="#696969"/>
<stop offset="0.28" stop-color="#484848"/>
<stop offset="0.37" stop-color="#2E2E2E"/>
<stop offset="0.47" stop-color="#191919"/>
<stop offset="0.58" stop-color="#0B0B0B"/>
<stop offset="0.72" stop-color="#030303"/>
<stop offset="0.94"/>
</radialGradient>
<radialGradient id="paint4_radial_57_219" cx="0" cy="0" r="1" gradientTransform="matrix(36.0208 38.8537 -1306.86 323.301 177.225 -379.626)" gradientUnits="userSpaceOnUse">
<stop offset="0.04" stop-color="#BDBDBD"/>
<stop offset="0.05" stop-color="#BABABA"/>
<stop offset="0.12" stop-color="#8F8F8F"/>
<stop offset="0.2" stop-color="#696969"/>
<stop offset="0.28" stop-color="#484848"/>
<stop offset="0.37" stop-color="#2E2E2E"/>
<stop offset="0.47" stop-color="#191919"/>
<stop offset="0.58" stop-color="#0B0B0B"/>
<stop offset="0.72" stop-color="#030303"/>
<stop offset="0.94"/>
</radialGradient>
<radialGradient id="paint5_radial_57_219" cx="0" cy="0" r="1" gradientTransform="matrix(-44.3039 36.4977 -1227.61 -397.645 780.528 -342.34)" gradientUnits="userSpaceOnUse">
<stop offset="0.04" stop-color="#BDBDBD"/>
<stop offset="0.05" stop-color="#BABABA"/>
<stop offset="0.12" stop-color="#8F8F8F"/>
<stop offset="0.2" stop-color="#696969"/>
<stop offset="0.28" stop-color="#484848"/>
<stop offset="0.37" stop-color="#2E2E2E"/>
<stop offset="0.47" stop-color="#191919"/>
<stop offset="0.58" stop-color="#0B0B0B"/>
<stop offset="0.72" stop-color="#030303"/>
<stop offset="0.94"/>
</radialGradient>
<radialGradient id="paint6_radial_57_219" cx="0" cy="0" r="1" gradientUnits="userSpaceOnUse" gradientTransform="translate(516.77 -104.439) scale(62.4898 560.872)">
<stop stop-color="#BDBDBD"/>
<stop offset="0.04" stop-color="#9B9B9B"/>
<stop offset="0.08" stop-color="#777777"/>
<stop offset="0.14" stop-color="#575757"/>
<stop offset="0.19" stop-color="#3B3B3B"/>
<stop offset="0.26" stop-color="#252525"/>
<stop offset="0.34" stop-color="#141414"/>
<stop offset="0.43" stop-color="#090909"/>
<stop offset="0.57" stop-color="#020202"/>
<stop offset="0.94"/>
</radialGradient>
<radialGradient id="paint7_radial_57_219" cx="0" cy="0" r="1" gradientTransform="matrix(26.9911 29.1139 -979.256 242.256 177.225 -379.626)" gradientUnits="userSpaceOnUse">
<stop stop-color="#BDBDBD"/>
<stop offset="0.04" stop-color="#9B9B9B"/>
<stop offset="0.08" stop-color="#777777"/>
<stop offset="0.14" stop-color="#575757"/>
<stop offset="0.19" stop-color="#3B3B3B"/>
<stop offset="0.26" stop-color="#252525"/>
<stop offset="0.34" stop-color="#141414"/>
<stop offset="0.43" stop-color="#090909"/>
<stop offset="0.57" stop-color="#020202"/>
<stop offset="0.94"/>
</radialGradient>
<radialGradient id="paint8_radial_57_219" cx="0" cy="0" r="1" gradientTransform="matrix(-33.1977 27.3484 -919.872 -297.964 780.526 -342.339)" gradientUnits="userSpaceOnUse">
<stop stop-color="#BDBDBD"/>
<stop offset="0.04" stop-color="#9B9B9B"/>
<stop offset="0.08" stop-color="#777777"/>
<stop offset="0.14" stop-color="#575757"/>
<stop offset="0.19" stop-color="#3B3B3B"/>
<stop offset="0.26" stop-color="#252525"/>
<stop offset="0.34" stop-color="#141414"/>
<stop offset="0.43" stop-color="#090909"/>
<stop offset="0.57" stop-color="#020202"/>
<stop offset="0.94"/>
</radialGradient>
<radialGradient id="paint9_radial_57_219" cx="0" cy="0" r="1" gradientTransform="matrix(52.3293 15.1014 -507.939 469.677 227.471 -161.72)" gradientUnits="userSpaceOnUse">
<stop offset="0.04" stop-color="#BDBDBD"/>
<stop offset="0.05" stop-color="#BABABA"/>
<stop offset="0.12" stop-color="#8F8F8F"/>
<stop offset="0.2" stop-color="#696969"/>
<stop offset="0.28" stop-color="#484848"/>
<stop offset="0.37" stop-color="#2E2E2E"/>
<stop offset="0.47" stop-color="#191919"/>
<stop offset="0.58" stop-color="#0B0B0B"/>
<stop offset="0.72" stop-color="#030303"/>
<stop offset="0.94"/>
</radialGradient>
<radialGradient id="paint10_radial_57_219" cx="0" cy="0" r="1" gradientTransform="matrix(-52.5673 14.8791 -500.463 -471.814 661.215 -125.288)" gradientUnits="userSpaceOnUse">
<stop offset="0.04" stop-color="#BDBDBD"/>
<stop offset="0.05" stop-color="#BABABA"/>
<stop offset="0.12" stop-color="#8F8F8F"/>
<stop offset="0.2" stop-color="#696969"/>
<stop offset="0.28" stop-color="#484848"/>
<stop offset="0.37" stop-color="#2E2E2E"/>
<stop offset="0.47" stop-color="#191919"/>
<stop offset="0.58" stop-color="#0B0B0B"/>
<stop offset="0.72" stop-color="#030303"/>
<stop offset="0.94"/>
</radialGradient>
<radialGradient id="paint11_radial_57_219" cx="0" cy="0" r="1" gradientTransform="matrix(52.3293 15.1014 -507.939 469.677 227.471 -161.72)" gradientUnits="userSpaceOnUse">
<stop offset="0.04" stop-color="#BDBDBD"/>
<stop offset="0.05" stop-color="#BABABA"/>
<stop offset="0.12" stop-color="#8F8F8F"/>
<stop offset="0.2" stop-color="#696969"/>
<stop offset="0.28" stop-color="#484848"/>
<stop offset="0.37" stop-color="#2E2E2E"/>
<stop offset="0.47" stop-color="#191919"/>
<stop offset="0.58" stop-color="#0B0B0B"/>
<stop offset="0.72" stop-color="#030303"/>
<stop offset="0.94"/>
</radialGradient>
<radialGradient id="paint12_radial_57_219" cx="0" cy="0" r="1" gradientTransform="matrix(-52.5673 14.8791 -500.463 -471.814 661.215 -125.288)" gradientUnits="userSpaceOnUse">
<stop offset="0.04" stop-color="#BDBDBD"/>
<stop offset="0.05" stop-color="#BABABA"/>
<stop offset="0.12" stop-color="#8F8F8F"/>
<stop offset="0.2" stop-color="#696969"/>
<stop offset="0.28" stop-color="#484848"/>
<stop offset="0.37" stop-color="#2E2E2E"/>
<stop offset="0.47" stop-color="#191919"/>
<stop offset="0.58" stop-color="#0B0B0B"/>
<stop offset="0.72" stop-color="#030303"/>
<stop offset="0.94"/>
</radialGradient>
<radialGradient id="paint13_radial_57_219" cx="0" cy="0" r="1" gradientTransform="matrix(39.2104 11.3155 -380.598 351.929 227.47 -161.72)" gradientUnits="userSpaceOnUse">
<stop stop-color="#BDBDBD"/>
<stop offset="0.04" stop-color="#9B9B9B"/>
<stop offset="0.08" stop-color="#777777"/>
<stop offset="0.14" stop-color="#575757"/>
<stop offset="0.19" stop-color="#3B3B3B"/>
<stop offset="0.26" stop-color="#252525"/>
<stop offset="0.34" stop-color="#141414"/>
<stop offset="0.43" stop-color="#090909"/>
<stop offset="0.57" stop-color="#020202"/>
<stop offset="0.94"/>
</radialGradient>
<radialGradient id="paint14_radial_57_219" cx="0" cy="0" r="1" gradientTransform="matrix(-39.3886 11.1489 -374.997 -353.53 661.215 -125.288)" gradientUnits="userSpaceOnUse">
<stop stop-color="#BDBDBD"/>
<stop offset="0.04" stop-color="#9B9B9B"/>
<stop offset="0.08" stop-color="#777777"/>
<stop offset="0.14" stop-color="#575757"/>
<stop offset="0.19" stop-color="#3B3B3B"/>
<stop offset="0.26" stop-color="#252525"/>
<stop offset="0.34" stop-color="#141414"/>
<stop offset="0.43" stop-color="#090909"/>
<stop offset="0.57" stop-color="#020202"/>
<stop offset="0.94"/>
</radialGradient>
<radialGradient id="paint15_radial_57_219" cx="0" cy="0" r="1" gradientTransform="matrix(29.0968 17.2663 -580.758 261.156 193.022 -248.176)" gradientUnits="userSpaceOnUse">
<stop offset="0.04" stop-color="#BDBDBD"/>
<stop offset="0.05" stop-color="#BABABA"/>
<stop offset="0.12" stop-color="#8F8F8F"/>
<stop offset="0.2" stop-color="#696969"/>
<stop offset="0.28" stop-color="#484848"/>
<stop offset="0.37" stop-color="#2E2E2E"/>
<stop offset="0.47" stop-color="#191919"/>
<stop offset="0.58" stop-color="#0B0B0B"/>
<stop offset="0.72" stop-color="#030303"/>
<stop offset="0.94"/>
</radialGradient>
<radialGradient id="paint16_radial_57_219" cx="0" cy="0" r="1" gradientTransform="matrix(-17.5784 21.014 -706.812 -157.774 621.362 -277.566)" gradientUnits="userSpaceOnUse">
<stop offset="0.04" stop-color="#BDBDBD"/>
<stop offset="0.05" stop-color="#BABABA"/>
<stop offset="0.12" stop-color="#8F8F8F"/>
<stop offset="0.2" stop-color="#696969"/>
<stop offset="0.28" stop-color="#484848"/>
<stop offset="0.37" stop-color="#2E2E2E"/>
<stop offset="0.47" stop-color="#191919"/>
<stop offset="0.58" stop-color="#0B0B0B"/>
<stop offset="0.72" stop-color="#030303"/>
<stop offset="0.94"/>
</radialGradient>
<radialGradient id="paint17_radial_57_219" cx="0" cy="0" r="1" gradientTransform="matrix(-43.8721 3.66271 -123.197 -393.771 440.951 -69.7547)" gradientUnits="userSpaceOnUse">
<stop offset="0.04" stop-color="#BDBDBD"/>
<stop offset="0.05" stop-color="#BABABA"/>
<stop offset="0.12" stop-color="#8F8F8F"/>
<stop offset="0.2" stop-color="#696969"/>
<stop offset="0.28" stop-color="#484848"/>
<stop offset="0.37" stop-color="#2E2E2E"/>
<stop offset="0.47" stop-color="#191919"/>
<stop offset="0.58" stop-color="#0B0B0B"/>
<stop offset="0.72" stop-color="#030303"/>
<stop offset="0.94"/>
</radialGradient>
<radialGradient id="paint18_radial_57_219" cx="0" cy="0" r="1" gradientTransform="matrix(29.0968 17.2663 -580.758 261.156 193.022 -248.176)" gradientUnits="userSpaceOnUse">
<stop offset="0.04" stop-color="#BDBDBD"/>
<stop offset="0.05" stop-color="#BABABA"/>
<stop offset="0.12" stop-color="#8F8F8F"/>
<stop offset="0.2" stop-color="#696969"/>
<stop offset="0.28" stop-color="#484848"/>
<stop offset="0.37" stop-color="#2E2E2E"/>
<stop offset="0.47" stop-color="#191919"/>
<stop offset="0.58" stop-color="#0B0B0B"/>
<stop offset="0.72" stop-color="#030303"/>
<stop offset="0.94"/>
</radialGradient>
<radialGradient id="paint19_radial_57_219" cx="0" cy="0" r="1" gradientTransform="matrix(-17.5784 21.014 -706.812 -157.774 621.362 -277.566)" gradientUnits="userSpaceOnUse">
<stop offset="0.04" stop-color="#BDBDBD"/>
<stop offset="0.05" stop-color="#BABABA"/>
<stop offset="0.12" stop-color="#8F8F8F"/>
<stop offset="0.2" stop-color="#696969"/>
<stop offset="0.28" stop-color="#484848"/>
<stop offset="0.37" stop-color="#2E2E2E"/>
<stop offset="0.47" stop-color="#191919"/>
<stop offset="0.58" stop-color="#0B0B0B"/>
<stop offset="0.72" stop-color="#030303"/>
<stop offset="0.94"/>
</radialGradient>
<radialGradient id="paint20_radial_57_219" cx="0" cy="0" r="1" gradientTransform="matrix(-43.8721 3.66271 -123.197 -393.771 440.951 -69.7547)" gradientUnits="userSpaceOnUse">
<stop offset="0.04" stop-color="#BDBDBD"/>
<stop offset="0.05" stop-color="#BABABA"/>
<stop offset="0.12" stop-color="#8F8F8F"/>
<stop offset="0.2" stop-color="#696969"/>
<stop offset="0.28" stop-color="#484848"/>
<stop offset="0.37" stop-color="#2E2E2E"/>
<stop offset="0.47" stop-color="#191919"/>
<stop offset="0.58" stop-color="#0B0B0B"/>
<stop offset="0.72" stop-color="#030303"/>
<stop offset="0.94"/>
</radialGradient>
<radialGradient id="paint21_radial_57_219" cx="0" cy="0" r="1" gradientTransform="matrix(21.8046 12.9391 -435.21 195.706 193.022 -248.176)" gradientUnits="userSpaceOnUse">
<stop stop-color="#BDBDBD"/>
<stop offset="0.04" stop-color="#9B9B9B"/>
<stop offset="0.08" stop-color="#777777"/>
<stop offset="0.14" stop-color="#575757"/>
<stop offset="0.19" stop-color="#3B3B3B"/>
<stop offset="0.26" stop-color="#252525"/>
<stop offset="0.34" stop-color="#141414"/>
<stop offset="0.43" stop-color="#090909"/>
<stop offset="0.57" stop-color="#020202"/>
<stop offset="0.94"/>
</radialGradient>
<radialGradient id="paint22_radial_57_219" cx="0" cy="0" r="1" gradientTransform="matrix(-13.173 15.7475 -529.672 -118.233 621.363 -277.566)" gradientUnits="userSpaceOnUse">
<stop stop-color="#BDBDBD"/>
<stop offset="0.04" stop-color="#9B9B9B"/>
<stop offset="0.08" stop-color="#777777"/>
<stop offset="0.14" stop-color="#575757"/>
<stop offset="0.19" stop-color="#3B3B3B"/>
<stop offset="0.26" stop-color="#252525"/>
<stop offset="0.34" stop-color="#141414"/>
<stop offset="0.43" stop-color="#090909"/>
<stop offset="0.57" stop-color="#020202"/>
<stop offset="0.94"/>
</radialGradient>
<radialGradient id="paint23_radial_57_219" cx="0" cy="0" r="1" gradientTransform="matrix(-32.8048 2.66882 -89.7667 -294.437 403.304 -56.6575)" gradientUnits="userSpaceOnUse">
<stop stop-color="#BDBDBD"/>
<stop offset="0.04" stop-color="#9B9B9B"/>
<stop offset="0.08" stop-color="#777777"/>
<stop offset="0.14" stop-color="#575757"/>
<stop offset="0.19" stop-color="#3B3B3B"/>
<stop offset="0.26" stop-color="#252525"/>
<stop offset="0.34" stop-color="#141414"/>
<stop offset="0.43" stop-color="#090909"/>
<stop offset="0.57" stop-color="#020202"/>
<stop offset="0.94"/>
</radialGradient>
<radialGradient id="paint24_radial_57_219" cx="0" cy="0" r="1" gradientUnits="userSpaceOnUse" gradientTransform="translate(421.579 -81.0498) scale(1038.42 536.419)">
<stop stop-color="white"/>
<stop offset="0.06" stop-color="#E1E1E1"/>
<stop offset="0.2" stop-color="#9F9F9F"/>
<stop offset="0.34" stop-color="#686868"/>
<stop offset="0.46" stop-color="#3D3D3D"/>
<stop offset="0.58" stop-color="#1E1E1E"/>
<stop offset="0.67" stop-color="#0B0B0B"/>
<stop offset="0.74" stop-color="#040404"/>
<stop offset="1"/>
</radialGradient>
<radialGradient id="paint25_radial_57_219" cx="0" cy="0" r="1" gradientUnits="userSpaceOnUse" gradientTransform="translate(421.578 -81.05) scale(479.006 247.44)">
<stop offset="0.27" stop-color="white"/>
<stop offset="0.31" stop-color="#E8E8E8"/>
<stop offset="0.43" stop-color="#A2A2A2"/>
<stop offset="0.55" stop-color="#686868"/>
<stop offset="0.66" stop-color="#3B3B3B"/>
<stop offset="0.75" stop-color="#1B1B1B"/>
<stop offset="0.83" stop-color="#070707"/>
<stop offset="0.88"/>
</radialGradient>
<clipPath id="clip0_57_219">
<rect width="646" height="412" fill="white"/>
</clipPath>
<clipPath id="clip1_57_219">
<rect width="646" height="412" fill="white"/>
</clipPath>
</defs>
</svg>
