<svg width="538" height="412" viewBox="0 0 538 412" fill="none" xmlns="http://www.w3.org/2000/svg">
<g clip-path="url(#clip0_57_252)">
<rect width="538" height="412" fill="#050029"/>
<rect width="538" height="412" fill="#5B66FF" fill-opacity="0.2"/>
<g style="mix-blend-mode:color-dodge" clip-path="url(#clip1_57_252)">
<path style="mix-blend-mode:screen" d="M1378 322.498C1378 277.835 1042.44 241.629 628.512 241.629C214.582 241.629 -120.975 277.835 -120.975 322.498C-120.975 367.161 214.582 403.367 628.512 403.367C1042.44 403.367 1378 367.16 1378 322.498Z" fill="url(#paint0_radial_57_252)"/>
<path style="mix-blend-mode:screen" d="M665.987 287.571C487.199 -435.133 325.393 -1005.36 304.585 -986.07C283.777 -966.779 411.845 -365.274 590.634 357.43C769.422 1080.13 931.227 1650.36 952.035 1631.07C972.843 1611.78 844.775 1010.27 665.987 287.571Z" fill="url(#paint1_radial_57_252)"/>
<path style="mix-blend-mode:screen" d="M1026.67 -906.742C1007.12 -930.469 813.014 -399.365 593.113 279.512C373.212 958.39 210.793 1527.96 230.339 1551.69C249.886 1575.42 443.996 1044.31 663.897 365.436C883.798 -313.442 1046.22 -883.015 1026.67 -906.742Z" fill="url(#paint2_radial_57_252)"/>
<path style="mix-blend-mode:screen" d="M1378 322.498C1378 277.835 1042.44 241.629 628.512 241.629C214.582 241.629 -120.975 277.835 -120.975 322.498C-120.975 367.161 214.582 403.367 628.512 403.367C1042.44 403.367 1378 367.16 1378 322.498Z" fill="url(#paint3_radial_57_252)"/>
<path style="mix-blend-mode:screen" d="M665.987 287.571C487.199 -435.133 325.393 -1005.36 304.585 -986.07C283.777 -966.779 411.845 -365.274 590.634 357.43C769.422 1080.13 931.227 1650.36 952.035 1631.07C972.843 1611.78 844.775 1010.27 665.987 287.571Z" fill="url(#paint4_radial_57_252)"/>
<path style="mix-blend-mode:screen" d="M1026.67 -906.742C1007.12 -930.469 813.014 -399.365 593.113 279.512C373.212 958.39 210.793 1527.96 230.339 1551.69C249.886 1575.42 443.996 1044.31 663.897 365.436C883.798 -313.442 1046.22 -883.015 1026.67 -906.742Z" fill="url(#paint5_radial_57_252)"/>
<path style="mix-blend-mode:screen" d="M1190.16 322.498C1190.16 289.026 938.7 261.892 628.512 261.892C318.325 261.892 66.8682 289.026 66.8682 322.498C66.8682 355.969 318.325 383.104 628.512 383.103C938.7 383.103 1190.16 355.969 1190.16 322.498Z" fill="url(#paint6_radial_57_252)"/>
<path style="mix-blend-mode:screen" d="M656.547 296.323C522.568 -245.251 401.315 -672.562 385.721 -658.105C370.126 -643.647 466.096 -192.896 600.074 348.677C734.053 890.251 855.306 1317.56 870.901 1303.1C886.495 1288.65 790.526 837.896 656.547 296.323Z" fill="url(#paint7_radial_57_252)"/>
<path style="mix-blend-mode:screen" d="M926.879 -598.665C912.23 -616.446 766.768 -218.454 601.981 290.277C437.194 799.008 315.482 1225.83 330.131 1243.61C344.78 1261.4 490.241 863.402 655.029 354.671C819.816 -154.06 941.527 -580.883 926.879 -598.665Z" fill="url(#paint8_radial_57_252)"/>
<path style="mix-blend-mode:screen" d="M642.955 271.974C383.23 -8.90953 166.123 -213.885 158.033 -185.852C149.943 -157.819 353.934 92.6064 613.659 373.489C873.384 654.373 1090.49 859.348 1098.58 831.315C1106.67 803.282 902.68 552.857 642.955 271.974Z" fill="url(#paint9_radial_57_252)"/>
<path style="mix-blend-mode:screen" d="M1100.68 -178.643C1092.71 -206.804 874.744 -5.28253 613.838 271.467C352.931 548.216 147.886 795.394 155.857 823.555C163.828 851.715 381.796 650.194 642.702 373.445C903.609 96.6951 1108.65 -150.483 1100.68 -178.643Z" fill="url(#paint10_radial_57_252)"/>
<path style="mix-blend-mode:screen" d="M642.955 271.974C383.23 -8.90953 166.123 -213.885 158.033 -185.852C149.943 -157.819 353.934 92.6064 613.659 373.489C873.384 654.373 1090.49 859.348 1098.58 831.315C1106.67 803.282 902.68 552.857 642.955 271.974Z" fill="url(#paint11_radial_57_252)"/>
<path style="mix-blend-mode:screen" d="M1100.68 -178.643C1092.71 -206.804 874.744 -5.28253 613.838 271.467C352.931 548.216 147.886 795.394 155.857 823.555C163.828 851.715 381.796 650.194 642.702 373.445C903.609 96.6951 1108.65 -150.483 1100.68 -178.643Z" fill="url(#paint12_radial_57_252)"/>
<path style="mix-blend-mode:screen" d="M639.275 284.723C444.658 74.2514 281.978 -79.3528 275.92 -58.3612C269.862 -37.3695 422.72 150.269 617.338 360.741C811.955 571.212 974.635 724.816 980.693 703.825C986.751 682.833 833.893 495.195 639.275 284.723Z" fill="url(#paint13_radial_57_252)"/>
<path style="mix-blend-mode:screen" d="M982.259 -53.0285C976.29 -74.1156 812.965 76.8997 617.463 284.274C421.96 491.648 268.312 676.853 274.281 697.94C280.249 719.027 443.574 568.011 639.077 360.637C834.58 153.263 988.228 -31.9414 982.259 -53.0285Z" fill="url(#paint14_radial_57_252)"/>
<path style="mix-blend-mode:screen" d="M645.146 294.295C500.724 -26.8703 376.147 -274.589 366.896 -259C357.646 -243.411 467.224 29.5829 611.646 350.748C756.068 671.914 880.644 919.632 889.895 904.043C899.146 888.454 789.568 615.46 645.146 294.295Z" fill="url(#paint15_radial_57_252)"/>
<path style="mix-blend-mode:screen" d="M786.22 -384.893C774.961 -394.311 695.103 -85.0801 607.853 305.795C520.602 696.669 458.999 1021.17 470.257 1030.59C481.516 1040.01 561.373 730.775 648.624 339.9C735.874 -50.9747 797.478 -375.475 786.22 -384.893Z" fill="url(#paint16_radial_57_252)"/>
<path style="mix-blend-mode:screen" d="M1009.47 161.736C1007.51 138.231 829.387 174.405 611.627 242.534C393.867 310.664 218.929 384.948 220.892 408.453C222.854 431.959 400.974 395.784 618.733 327.655C836.493 259.525 1011.43 185.241 1009.47 161.736Z" fill="url(#paint17_radial_57_252)"/>
<path style="mix-blend-mode:screen" d="M645.146 294.295C500.724 -26.8703 376.147 -274.589 366.896 -259C357.646 -243.411 467.224 29.5829 611.646 350.748C756.068 671.914 880.644 919.632 889.895 904.043C899.146 888.454 789.568 615.46 645.146 294.295Z" fill="url(#paint18_radial_57_252)"/>
<path style="mix-blend-mode:screen" d="M786.22 -384.893C774.961 -394.311 695.103 -85.0801 607.853 305.795C520.602 696.669 458.999 1021.17 470.257 1030.59C481.516 1040.01 561.373 730.775 648.624 339.9C735.874 -50.9747 797.478 -375.475 786.22 -384.893Z" fill="url(#paint19_radial_57_252)"/>
<path style="mix-blend-mode:screen" d="M1009.47 161.736C1007.51 138.231 829.387 174.405 611.627 242.534C393.867 310.664 218.929 384.948 220.892 408.453C222.854 431.959 400.974 395.784 618.733 327.655C836.493 259.525 1011.43 185.241 1009.47 161.736Z" fill="url(#paint20_radial_57_252)"/>
<path style="mix-blend-mode:screen" d="M640.95 301.367C532.723 60.6922 439.367 -124.942 432.434 -113.258C425.501 -101.575 507.616 103.002 615.843 343.677C724.07 584.351 817.425 769.985 824.358 758.301C831.291 746.617 749.177 542.041 640.95 301.367Z" fill="url(#paint21_radial_57_252)"/>
<path style="mix-blend-mode:screen" d="M746.626 -207.519C738.188 -214.577 678.343 17.1534 612.96 310.066C547.576 602.98 501.412 846.155 509.85 853.213C518.288 860.272 578.132 628.541 643.516 335.627C708.9 42.7144 755.064 -200.46 746.626 -207.519Z" fill="url(#paint22_radial_57_252)"/>
<path style="mix-blend-mode:screen" d="M923.205 232.56C921.775 214.982 788.62 240.974 625.794 290.616C462.968 340.258 332.131 394.75 333.561 412.328C334.991 429.906 468.147 403.913 630.973 354.271C793.798 304.629 924.635 250.137 923.205 232.56Z" fill="url(#paint23_radial_57_252)"/>
<path style="mix-blend-mode:screen" d="M1178.37 303.421C1178.37 -270.085 938.206 -735.003 641.95 -735.003C345.694 -735.003 105.531 -270.084 105.531 303.421C105.531 876.927 345.694 1341.85 641.95 1341.85C938.206 1341.85 1178.37 876.927 1178.37 303.421Z" fill="url(#paint24_radial_57_252)"/>
<path style="mix-blend-mode:screen" d="M889.39 303.422C889.39 38.8739 778.607 -175.584 641.95 -175.584C505.292 -175.584 394.51 38.874 394.51 303.422C394.51 567.969 505.293 782.427 641.95 782.427C778.608 782.427 889.39 567.969 889.39 303.422Z" fill="url(#paint25_radial_57_252)"/>
</g>
</g>
<defs>
<radialGradient id="paint0_radial_57_252" cx="0" cy="0" r="1" gradientUnits="userSpaceOnUse" gradientTransform="translate(618.561 208.23) rotate(-90) scale(83.3952 748.506)">
<stop offset="0.04" stop-color="#BDBDBD"/>
<stop offset="0.05" stop-color="#BABABA"/>
<stop offset="0.12" stop-color="#8F8F8F"/>
<stop offset="0.2" stop-color="#696969"/>
<stop offset="0.28" stop-color="#484848"/>
<stop offset="0.37" stop-color="#2E2E2E"/>
<stop offset="0.47" stop-color="#191919"/>
<stop offset="0.58" stop-color="#0B0B0B"/>
<stop offset="0.72" stop-color="#030303"/>
<stop offset="0.94"/>
</radialGradient>
<radialGradient id="paint1_radial_57_252" cx="0" cy="0" r="1" gradientTransform="matrix(38.8537 -36.0208 323.301 1306.86 343.374 547.775)" gradientUnits="userSpaceOnUse">
<stop offset="0.04" stop-color="#BDBDBD"/>
<stop offset="0.05" stop-color="#BABABA"/>
<stop offset="0.12" stop-color="#8F8F8F"/>
<stop offset="0.2" stop-color="#696969"/>
<stop offset="0.28" stop-color="#484848"/>
<stop offset="0.37" stop-color="#2E2E2E"/>
<stop offset="0.47" stop-color="#191919"/>
<stop offset="0.58" stop-color="#0B0B0B"/>
<stop offset="0.72" stop-color="#030303"/>
<stop offset="0.94"/>
</radialGradient>
<radialGradient id="paint2_radial_57_252" cx="0" cy="0" r="1" gradientTransform="matrix(36.4977 44.3039 -397.645 1227.61 380.66 -55.5282)" gradientUnits="userSpaceOnUse">
<stop offset="0.04" stop-color="#BDBDBD"/>
<stop offset="0.05" stop-color="#BABABA"/>
<stop offset="0.12" stop-color="#8F8F8F"/>
<stop offset="0.2" stop-color="#696969"/>
<stop offset="0.28" stop-color="#484848"/>
<stop offset="0.37" stop-color="#2E2E2E"/>
<stop offset="0.47" stop-color="#191919"/>
<stop offset="0.58" stop-color="#0B0B0B"/>
<stop offset="0.72" stop-color="#030303"/>
<stop offset="0.94"/>
</radialGradient>
<radialGradient id="paint3_radial_57_252" cx="0" cy="0" r="1" gradientUnits="userSpaceOnUse" gradientTransform="translate(618.561 208.23) rotate(-90) scale(83.3952 748.506)">
<stop offset="0.04" stop-color="#BDBDBD"/>
<stop offset="0.05" stop-color="#BABABA"/>
<stop offset="0.12" stop-color="#8F8F8F"/>
<stop offset="0.2" stop-color="#696969"/>
<stop offset="0.28" stop-color="#484848"/>
<stop offset="0.37" stop-color="#2E2E2E"/>
<stop offset="0.47" stop-color="#191919"/>
<stop offset="0.58" stop-color="#0B0B0B"/>
<stop offset="0.72" stop-color="#030303"/>
<stop offset="0.94"/>
</radialGradient>
<radialGradient id="paint4_radial_57_252" cx="0" cy="0" r="1" gradientTransform="matrix(38.8537 -36.0208 323.301 1306.86 343.374 547.775)" gradientUnits="userSpaceOnUse">
<stop offset="0.04" stop-color="#BDBDBD"/>
<stop offset="0.05" stop-color="#BABABA"/>
<stop offset="0.12" stop-color="#8F8F8F"/>
<stop offset="0.2" stop-color="#696969"/>
<stop offset="0.28" stop-color="#484848"/>
<stop offset="0.37" stop-color="#2E2E2E"/>
<stop offset="0.47" stop-color="#191919"/>
<stop offset="0.58" stop-color="#0B0B0B"/>
<stop offset="0.72" stop-color="#030303"/>
<stop offset="0.94"/>
</radialGradient>
<radialGradient id="paint5_radial_57_252" cx="0" cy="0" r="1" gradientTransform="matrix(36.4977 44.3039 -397.645 1227.61 380.66 -55.5282)" gradientUnits="userSpaceOnUse">
<stop offset="0.04" stop-color="#BDBDBD"/>
<stop offset="0.05" stop-color="#BABABA"/>
<stop offset="0.12" stop-color="#8F8F8F"/>
<stop offset="0.2" stop-color="#696969"/>
<stop offset="0.28" stop-color="#484848"/>
<stop offset="0.37" stop-color="#2E2E2E"/>
<stop offset="0.47" stop-color="#191919"/>
<stop offset="0.58" stop-color="#0B0B0B"/>
<stop offset="0.72" stop-color="#030303"/>
<stop offset="0.94"/>
</radialGradient>
<radialGradient id="paint6_radial_57_252" cx="0" cy="0" r="1" gradientUnits="userSpaceOnUse" gradientTransform="translate(618.561 208.23) rotate(-90) scale(62.4898 560.872)">
<stop stop-color="#BDBDBD"/>
<stop offset="0.04" stop-color="#9B9B9B"/>
<stop offset="0.08" stop-color="#777777"/>
<stop offset="0.14" stop-color="#575757"/>
<stop offset="0.19" stop-color="#3B3B3B"/>
<stop offset="0.26" stop-color="#252525"/>
<stop offset="0.34" stop-color="#141414"/>
<stop offset="0.43" stop-color="#090909"/>
<stop offset="0.57" stop-color="#020202"/>
<stop offset="0.94"/>
</radialGradient>
<radialGradient id="paint7_radial_57_252" cx="0" cy="0" r="1" gradientTransform="matrix(29.1139 -26.9911 242.256 979.256 343.374 547.775)" gradientUnits="userSpaceOnUse">
<stop stop-color="#BDBDBD"/>
<stop offset="0.04" stop-color="#9B9B9B"/>
<stop offset="0.08" stop-color="#777777"/>
<stop offset="0.14" stop-color="#575757"/>
<stop offset="0.19" stop-color="#3B3B3B"/>
<stop offset="0.26" stop-color="#252525"/>
<stop offset="0.34" stop-color="#141414"/>
<stop offset="0.43" stop-color="#090909"/>
<stop offset="0.57" stop-color="#020202"/>
<stop offset="0.94"/>
</radialGradient>
<radialGradient id="paint8_radial_57_252" cx="0" cy="0" r="1" gradientTransform="matrix(27.3484 33.1977 -297.964 919.872 380.661 -55.5262)" gradientUnits="userSpaceOnUse">
<stop stop-color="#BDBDBD"/>
<stop offset="0.04" stop-color="#9B9B9B"/>
<stop offset="0.08" stop-color="#777777"/>
<stop offset="0.14" stop-color="#575757"/>
<stop offset="0.19" stop-color="#3B3B3B"/>
<stop offset="0.26" stop-color="#252525"/>
<stop offset="0.34" stop-color="#141414"/>
<stop offset="0.43" stop-color="#090909"/>
<stop offset="0.57" stop-color="#020202"/>
<stop offset="0.94"/>
</radialGradient>
<radialGradient id="paint9_radial_57_252" cx="0" cy="0" r="1" gradientTransform="matrix(15.1013 -52.3293 469.677 507.939 561.28 497.529)" gradientUnits="userSpaceOnUse">
<stop offset="0.04" stop-color="#BDBDBD"/>
<stop offset="0.05" stop-color="#BABABA"/>
<stop offset="0.12" stop-color="#8F8F8F"/>
<stop offset="0.2" stop-color="#696969"/>
<stop offset="0.28" stop-color="#484848"/>
<stop offset="0.37" stop-color="#2E2E2E"/>
<stop offset="0.47" stop-color="#191919"/>
<stop offset="0.58" stop-color="#0B0B0B"/>
<stop offset="0.72" stop-color="#030303"/>
<stop offset="0.94"/>
</radialGradient>
<radialGradient id="paint10_radial_57_252" cx="0" cy="0" r="1" gradientTransform="matrix(14.8791 52.5673 -471.814 500.463 597.712 63.7849)" gradientUnits="userSpaceOnUse">
<stop offset="0.04" stop-color="#BDBDBD"/>
<stop offset="0.05" stop-color="#BABABA"/>
<stop offset="0.12" stop-color="#8F8F8F"/>
<stop offset="0.2" stop-color="#696969"/>
<stop offset="0.28" stop-color="#484848"/>
<stop offset="0.37" stop-color="#2E2E2E"/>
<stop offset="0.47" stop-color="#191919"/>
<stop offset="0.58" stop-color="#0B0B0B"/>
<stop offset="0.72" stop-color="#030303"/>
<stop offset="0.94"/>
</radialGradient>
<radialGradient id="paint11_radial_57_252" cx="0" cy="0" r="1" gradientTransform="matrix(15.1013 -52.3293 469.677 507.939 561.28 497.529)" gradientUnits="userSpaceOnUse">
<stop offset="0.04" stop-color="#BDBDBD"/>
<stop offset="0.05" stop-color="#BABABA"/>
<stop offset="0.12" stop-color="#8F8F8F"/>
<stop offset="0.2" stop-color="#696969"/>
<stop offset="0.28" stop-color="#484848"/>
<stop offset="0.37" stop-color="#2E2E2E"/>
<stop offset="0.47" stop-color="#191919"/>
<stop offset="0.58" stop-color="#0B0B0B"/>
<stop offset="0.72" stop-color="#030303"/>
<stop offset="0.94"/>
</radialGradient>
<radialGradient id="paint12_radial_57_252" cx="0" cy="0" r="1" gradientTransform="matrix(14.8791 52.5673 -471.814 500.463 597.712 63.7849)" gradientUnits="userSpaceOnUse">
<stop offset="0.04" stop-color="#BDBDBD"/>
<stop offset="0.05" stop-color="#BABABA"/>
<stop offset="0.12" stop-color="#8F8F8F"/>
<stop offset="0.2" stop-color="#696969"/>
<stop offset="0.28" stop-color="#484848"/>
<stop offset="0.37" stop-color="#2E2E2E"/>
<stop offset="0.47" stop-color="#191919"/>
<stop offset="0.58" stop-color="#0B0B0B"/>
<stop offset="0.72" stop-color="#030303"/>
<stop offset="0.94"/>
</radialGradient>
<radialGradient id="paint13_radial_57_252" cx="0" cy="0" r="1" gradientTransform="matrix(11.3155 -39.2104 351.929 380.598 561.28 497.53)" gradientUnits="userSpaceOnUse">
<stop stop-color="#BDBDBD"/>
<stop offset="0.04" stop-color="#9B9B9B"/>
<stop offset="0.08" stop-color="#777777"/>
<stop offset="0.14" stop-color="#575757"/>
<stop offset="0.19" stop-color="#3B3B3B"/>
<stop offset="0.26" stop-color="#252525"/>
<stop offset="0.34" stop-color="#141414"/>
<stop offset="0.43" stop-color="#090909"/>
<stop offset="0.57" stop-color="#020202"/>
<stop offset="0.94"/>
</radialGradient>
<radialGradient id="paint14_radial_57_252" cx="0" cy="0" r="1" gradientTransform="matrix(11.1489 39.3886 -353.53 374.997 597.712 63.785)" gradientUnits="userSpaceOnUse">
<stop stop-color="#BDBDBD"/>
<stop offset="0.04" stop-color="#9B9B9B"/>
<stop offset="0.08" stop-color="#777777"/>
<stop offset="0.14" stop-color="#575757"/>
<stop offset="0.19" stop-color="#3B3B3B"/>
<stop offset="0.26" stop-color="#252525"/>
<stop offset="0.34" stop-color="#141414"/>
<stop offset="0.43" stop-color="#090909"/>
<stop offset="0.57" stop-color="#020202"/>
<stop offset="0.94"/>
</radialGradient>
<radialGradient id="paint15_radial_57_252" cx="0" cy="0" r="1" gradientTransform="matrix(17.2663 -29.0968 261.156 580.758 474.824 531.978)" gradientUnits="userSpaceOnUse">
<stop offset="0.04" stop-color="#BDBDBD"/>
<stop offset="0.05" stop-color="#BABABA"/>
<stop offset="0.12" stop-color="#8F8F8F"/>
<stop offset="0.2" stop-color="#696969"/>
<stop offset="0.28" stop-color="#484848"/>
<stop offset="0.37" stop-color="#2E2E2E"/>
<stop offset="0.47" stop-color="#191919"/>
<stop offset="0.58" stop-color="#0B0B0B"/>
<stop offset="0.72" stop-color="#030303"/>
<stop offset="0.94"/>
</radialGradient>
<radialGradient id="paint16_radial_57_252" cx="0" cy="0" r="1" gradientTransform="matrix(21.014 17.5784 -157.774 706.812 445.434 103.638)" gradientUnits="userSpaceOnUse">
<stop offset="0.04" stop-color="#BDBDBD"/>
<stop offset="0.05" stop-color="#BABABA"/>
<stop offset="0.12" stop-color="#8F8F8F"/>
<stop offset="0.2" stop-color="#696969"/>
<stop offset="0.28" stop-color="#484848"/>
<stop offset="0.37" stop-color="#2E2E2E"/>
<stop offset="0.47" stop-color="#191919"/>
<stop offset="0.58" stop-color="#0B0B0B"/>
<stop offset="0.72" stop-color="#030303"/>
<stop offset="0.94"/>
</radialGradient>
<radialGradient id="paint17_radial_57_252" cx="0" cy="0" r="1" gradientTransform="matrix(3.66271 43.8721 -393.771 123.197 653.245 284.049)" gradientUnits="userSpaceOnUse">
<stop offset="0.04" stop-color="#BDBDBD"/>
<stop offset="0.05" stop-color="#BABABA"/>
<stop offset="0.12" stop-color="#8F8F8F"/>
<stop offset="0.2" stop-color="#696969"/>
<stop offset="0.28" stop-color="#484848"/>
<stop offset="0.37" stop-color="#2E2E2E"/>
<stop offset="0.47" stop-color="#191919"/>
<stop offset="0.58" stop-color="#0B0B0B"/>
<stop offset="0.72" stop-color="#030303"/>
<stop offset="0.94"/>
</radialGradient>
<radialGradient id="paint18_radial_57_252" cx="0" cy="0" r="1" gradientTransform="matrix(17.2663 -29.0968 261.156 580.758 474.824 531.978)" gradientUnits="userSpaceOnUse">
<stop offset="0.04" stop-color="#BDBDBD"/>
<stop offset="0.05" stop-color="#BABABA"/>
<stop offset="0.12" stop-color="#8F8F8F"/>
<stop offset="0.2" stop-color="#696969"/>
<stop offset="0.28" stop-color="#484848"/>
<stop offset="0.37" stop-color="#2E2E2E"/>
<stop offset="0.47" stop-color="#191919"/>
<stop offset="0.58" stop-color="#0B0B0B"/>
<stop offset="0.72" stop-color="#030303"/>
<stop offset="0.94"/>
</radialGradient>
<radialGradient id="paint19_radial_57_252" cx="0" cy="0" r="1" gradientTransform="matrix(21.014 17.5784 -157.774 706.812 445.434 103.638)" gradientUnits="userSpaceOnUse">
<stop offset="0.04" stop-color="#BDBDBD"/>
<stop offset="0.05" stop-color="#BABABA"/>
<stop offset="0.12" stop-color="#8F8F8F"/>
<stop offset="0.2" stop-color="#696969"/>
<stop offset="0.28" stop-color="#484848"/>
<stop offset="0.37" stop-color="#2E2E2E"/>
<stop offset="0.47" stop-color="#191919"/>
<stop offset="0.58" stop-color="#0B0B0B"/>
<stop offset="0.72" stop-color="#030303"/>
<stop offset="0.94"/>
</radialGradient>
<radialGradient id="paint20_radial_57_252" cx="0" cy="0" r="1" gradientTransform="matrix(3.66271 43.8721 -393.771 123.197 653.245 284.049)" gradientUnits="userSpaceOnUse">
<stop offset="0.04" stop-color="#BDBDBD"/>
<stop offset="0.05" stop-color="#BABABA"/>
<stop offset="0.12" stop-color="#8F8F8F"/>
<stop offset="0.2" stop-color="#696969"/>
<stop offset="0.28" stop-color="#484848"/>
<stop offset="0.37" stop-color="#2E2E2E"/>
<stop offset="0.47" stop-color="#191919"/>
<stop offset="0.58" stop-color="#0B0B0B"/>
<stop offset="0.72" stop-color="#030303"/>
<stop offset="0.94"/>
</radialGradient>
<radialGradient id="paint21_radial_57_252" cx="0" cy="0" r="1" gradientTransform="matrix(12.9391 -21.8046 195.706 435.21 474.824 531.978)" gradientUnits="userSpaceOnUse">
<stop stop-color="#BDBDBD"/>
<stop offset="0.04" stop-color="#9B9B9B"/>
<stop offset="0.08" stop-color="#777777"/>
<stop offset="0.14" stop-color="#575757"/>
<stop offset="0.19" stop-color="#3B3B3B"/>
<stop offset="0.26" stop-color="#252525"/>
<stop offset="0.34" stop-color="#141414"/>
<stop offset="0.43" stop-color="#090909"/>
<stop offset="0.57" stop-color="#020202"/>
<stop offset="0.94"/>
</radialGradient>
<radialGradient id="paint22_radial_57_252" cx="0" cy="0" r="1" gradientTransform="matrix(15.7475 13.173 -118.233 529.672 445.433 103.637)" gradientUnits="userSpaceOnUse">
<stop stop-color="#BDBDBD"/>
<stop offset="0.04" stop-color="#9B9B9B"/>
<stop offset="0.08" stop-color="#777777"/>
<stop offset="0.14" stop-color="#575757"/>
<stop offset="0.19" stop-color="#3B3B3B"/>
<stop offset="0.26" stop-color="#252525"/>
<stop offset="0.34" stop-color="#141414"/>
<stop offset="0.43" stop-color="#090909"/>
<stop offset="0.57" stop-color="#020202"/>
<stop offset="0.94"/>
</radialGradient>
<radialGradient id="paint23_radial_57_252" cx="0" cy="0" r="1" gradientTransform="matrix(2.66882 32.8048 -294.437 89.7667 666.342 321.696)" gradientUnits="userSpaceOnUse">
<stop stop-color="#BDBDBD"/>
<stop offset="0.04" stop-color="#9B9B9B"/>
<stop offset="0.08" stop-color="#777777"/>
<stop offset="0.14" stop-color="#575757"/>
<stop offset="0.19" stop-color="#3B3B3B"/>
<stop offset="0.26" stop-color="#252525"/>
<stop offset="0.34" stop-color="#141414"/>
<stop offset="0.43" stop-color="#090909"/>
<stop offset="0.57" stop-color="#020202"/>
<stop offset="0.94"/>
</radialGradient>
<radialGradient id="paint24_radial_57_252" cx="0" cy="0" r="1" gradientUnits="userSpaceOnUse" gradientTransform="translate(641.95 303.421) rotate(-90) scale(1038.42 536.419)">
<stop stop-color="white"/>
<stop offset="0.06" stop-color="#E1E1E1"/>
<stop offset="0.2" stop-color="#9F9F9F"/>
<stop offset="0.34" stop-color="#686868"/>
<stop offset="0.46" stop-color="#3D3D3D"/>
<stop offset="0.58" stop-color="#1E1E1E"/>
<stop offset="0.67" stop-color="#0B0B0B"/>
<stop offset="0.74" stop-color="#040404"/>
<stop offset="1"/>
</radialGradient>
<radialGradient id="paint25_radial_57_252" cx="0" cy="0" r="1" gradientUnits="userSpaceOnUse" gradientTransform="translate(641.95 303.422) rotate(-90) scale(479.006 247.44)">
<stop offset="0.27" stop-color="white"/>
<stop offset="0.31" stop-color="#E8E8E8"/>
<stop offset="0.43" stop-color="#A2A2A2"/>
<stop offset="0.55" stop-color="#686868"/>
<stop offset="0.66" stop-color="#3B3B3B"/>
<stop offset="0.75" stop-color="#1B1B1B"/>
<stop offset="0.83" stop-color="#070707"/>
<stop offset="0.88"/>
</radialGradient>
<clipPath id="clip0_57_252">
<rect width="538" height="412" fill="white"/>
</clipPath>
<clipPath id="clip1_57_252">
<rect width="412" height="435" fill="white" transform="translate(123 412) rotate(-90)"/>
</clipPath>
</defs>
</svg>
