<svg width="560" height="412" viewBox="0 0 560 412" fill="none" xmlns="http://www.w3.org/2000/svg">
<g clip-path="url(#clip0_479_481)">
<rect width="560" height="412" fill="#050029"/>
<rect width="560" height="412" fill="#5B66FF" fill-opacity="0.2"/>
<g style="mix-blend-mode:color-dodge" clip-path="url(#clip1_479_481)">
<path style="mix-blend-mode:screen" d="M670 34.7827C670 11.7113 334.443 -6.99173 -79.4876 -6.99172C-493.418 -6.9917 -828.975 11.7114 -828.975 34.7827C-828.975 57.8541 -493.418 76.5571 -79.4876 76.5571C334.443 76.5571 670 57.854 670 34.7827Z" fill="url(#paint0_radial_479_481)"/>
<path style="mix-blend-mode:screen" d="M-42.0131 16.7404C-220.801 -356.587 -382.606 -651.15 -403.415 -641.185C-424.223 -631.22 -296.155 -320.5 -117.366 52.8276C61.4219 426.155 223.227 720.718 244.035 710.753C264.843 700.787 136.775 390.068 -42.0131 16.7404Z" fill="url(#paint1_radial_479_481)"/>
<path style="mix-blend-mode:screen" d="M318.671 -600.206C299.124 -612.463 105.014 -338.11 -114.887 12.5775C-334.788 363.265 -497.207 657.49 -477.661 669.747C-458.114 682.004 -264.004 407.651 -44.1034 56.963C175.798 -293.725 338.217 -587.95 318.671 -600.206Z" fill="url(#paint2_radial_479_481)"/>
<path style="mix-blend-mode:screen" d="M670 34.7827C670 11.7113 334.443 -6.99173 -79.4876 -6.99172C-493.418 -6.9917 -828.975 11.7114 -828.975 34.7827C-828.975 57.8541 -493.418 76.5571 -79.4876 76.5571C334.443 76.5571 670 57.854 670 34.7827Z" fill="url(#paint3_radial_479_481)"/>
<path style="mix-blend-mode:screen" d="M-42.0131 16.7404C-220.801 -356.587 -382.606 -651.15 -403.415 -641.185C-424.223 -631.22 -296.155 -320.5 -117.366 52.8276C61.4219 426.155 223.227 720.718 244.035 710.753C264.843 700.787 136.775 390.068 -42.0131 16.7404Z" fill="url(#paint4_radial_479_481)"/>
<path style="mix-blend-mode:screen" d="M318.671 -600.206C299.124 -612.463 105.014 -338.11 -114.887 12.5775C-334.788 363.265 -497.207 657.49 -477.661 669.747C-458.114 682.004 -264.004 407.651 -44.1034 56.963C175.798 -293.725 338.217 -587.95 318.671 -600.206Z" fill="url(#paint5_radial_479_481)"/>
<path style="mix-blend-mode:screen" d="M482.156 34.7826C482.156 17.4921 230.7 3.47535 -79.4876 3.47536C-389.675 3.47537 -641.132 17.4921 -641.132 34.7826C-641.132 52.0731 -389.675 66.0898 -79.4876 66.0898C230.7 66.0898 482.156 52.0731 482.156 34.7826Z" fill="url(#paint6_radial_479_481)"/>
<path style="mix-blend-mode:screen" d="M-51.4535 21.2614C-185.432 -258.499 -306.685 -479.236 -322.28 -471.767C-337.874 -464.299 -241.905 -231.454 -107.926 48.3063C26.0528 328.067 147.306 548.803 162.9 541.335C178.495 533.867 82.5253 301.022 -51.4535 21.2614Z" fill="url(#paint7_radial_479_481)"/>
<path style="mix-blend-mode:screen" d="M218.879 -441.063C204.23 -450.248 58.7682 -244.657 -106.019 18.1385C-270.806 280.934 -392.518 501.418 -377.869 510.604C-363.22 519.789 -217.759 314.198 -52.9714 51.4024C111.816 -211.393 233.527 -431.877 218.879 -441.063Z" fill="url(#paint8_radial_479_481)"/>
<path style="mix-blend-mode:screen" d="M-65.0452 8.68337C-324.77 -136.413 -541.877 -242.297 -549.967 -227.816C-558.057 -213.335 -354.066 -83.9724 -94.341 61.1235C165.384 206.219 382.491 312.104 390.581 297.623C398.67 283.142 194.68 153.779 -65.0452 8.68337Z" fill="url(#paint9_radial_479_481)"/>
<path style="mix-blend-mode:screen" d="M392.683 -224.092C384.712 -238.639 166.744 -134.539 -94.1622 8.42162C-355.069 151.382 -560.114 279.067 -552.143 293.614C-544.172 308.161 -326.204 204.061 -65.2976 61.1003C195.609 -81.8602 400.654 -209.545 392.683 -224.092Z" fill="url(#paint10_radial_479_481)"/>
<path style="mix-blend-mode:screen" d="M-65.0452 8.68337C-324.77 -136.413 -541.877 -242.297 -549.967 -227.816C-558.057 -213.335 -354.066 -83.9724 -94.341 61.1235C165.384 206.219 382.491 312.104 390.581 297.623C398.67 283.142 194.68 153.779 -65.0452 8.68337Z" fill="url(#paint11_radial_479_481)"/>
<path style="mix-blend-mode:screen" d="M392.683 -224.092C384.712 -238.639 166.744 -134.539 -94.1622 8.42162C-355.069 151.382 -560.114 279.067 -552.143 293.614C-544.172 308.161 -326.204 204.061 -65.2976 61.1003C195.609 -81.8602 400.654 -209.545 392.683 -224.092Z" fill="url(#paint12_radial_479_481)"/>
<path style="mix-blend-mode:screen" d="M-68.7252 15.2695C-263.343 -93.4539 -426.022 -172.801 -432.08 -161.958C-438.138 -151.114 -285.28 -54.1855 -90.6625 54.5379C103.955 163.261 266.635 242.609 272.692 231.765C278.75 220.921 125.892 123.993 -68.7252 15.2695Z" fill="url(#paint13_radial_479_481)"/>
<path style="mix-blend-mode:screen" d="M274.259 -159.203C268.29 -170.096 104.965 -92.0859 -90.5373 15.0375C-286.04 122.161 -439.688 217.832 -433.719 228.725C-427.751 239.618 -264.426 161.608 -68.9229 54.4844C126.58 -52.639 280.228 -148.31 274.259 -159.203Z" fill="url(#paint14_radial_479_481)"/>
<path style="mix-blend-mode:screen" d="M-62.8539 20.2141C-207.276 -145.69 -331.852 -273.655 -341.103 -265.602C-350.354 -257.549 -240.776 -116.528 -96.3537 49.3761C48.0684 215.281 172.645 343.245 181.895 335.192C191.146 327.139 81.5682 186.119 -62.8539 20.2141Z" fill="url(#paint15_radial_479_481)"/>
<path style="mix-blend-mode:screen" d="M78.2196 -330.635C66.9609 -335.5 -12.8966 -175.76 -100.147 26.1541C-187.398 228.068 -249.001 395.696 -237.743 400.561C-226.484 405.426 -146.627 245.686 -59.3762 43.772C27.8744 -158.142 89.4782 -325.77 78.2196 -330.635Z" fill="url(#paint16_radial_479_481)"/>
<path style="mix-blend-mode:screen" d="M301.469 -48.262C299.506 -60.4042 121.387 -41.7175 -96.373 -6.52405C-314.133 28.6694 -489.071 67.0426 -487.108 79.1848C-485.146 91.3269 -307.026 72.64 -89.2666 37.4465C128.493 2.25302 303.431 -36.1199 301.469 -48.262Z" fill="url(#paint17_radial_479_481)"/>
<path style="mix-blend-mode:screen" d="M-62.8539 20.2141C-207.276 -145.69 -331.852 -273.655 -341.103 -265.602C-350.354 -257.549 -240.776 -116.528 -96.3537 49.3761C48.0684 215.281 172.645 343.245 181.895 335.192C191.146 327.139 81.5682 186.119 -62.8539 20.2141Z" fill="url(#paint18_radial_479_481)"/>
<path style="mix-blend-mode:screen" d="M78.2196 -330.635C66.9609 -335.5 -12.8966 -175.76 -100.147 26.1541C-187.398 228.068 -249.001 395.696 -237.743 400.561C-226.484 405.426 -146.627 245.686 -59.3762 43.772C27.8744 -158.142 89.4782 -325.77 78.2196 -330.635Z" fill="url(#paint19_radial_479_481)"/>
<path style="mix-blend-mode:screen" d="M301.469 -48.262C299.506 -60.4042 121.387 -41.7175 -96.373 -6.52405C-314.133 28.6694 -489.071 67.0426 -487.108 79.1848C-485.146 91.3269 -307.026 72.64 -89.2666 37.4465C128.493 2.25302 303.431 -36.1199 301.469 -48.262Z" fill="url(#paint20_radial_479_481)"/>
<path style="mix-blend-mode:screen" d="M-67.0501 23.8669C-175.277 -100.458 -268.633 -196.351 -275.566 -190.316C-282.499 -184.281 -200.384 -78.6023 -92.1572 45.7229C16.0696 170.048 109.425 265.941 116.358 259.906C123.291 253.87 41.1767 148.192 -67.0501 23.8669Z" fill="url(#paint21_radial_479_481)"/>
<path style="mix-blend-mode:screen" d="M38.6262 -239.008C30.1882 -242.654 -29.6563 -122.949 -95.04 28.3611C-160.424 179.671 -206.587 305.288 -198.149 308.935C-189.711 312.581 -129.867 192.875 -64.4833 41.5652C0.900394 -109.745 47.0641 -235.362 38.6262 -239.008Z" fill="url(#paint22_radial_479_481)"/>
<path style="mix-blend-mode:screen" d="M215.205 -11.6766C213.775 -20.7568 80.6198 -7.32976 -82.206 18.3137C-245.032 43.9571 -375.869 72.1063 -374.439 81.1865C-373.009 90.2667 -239.853 76.8393 -77.0274 51.1959C85.7984 25.5524 216.635 -2.59645 215.205 -11.6766Z" fill="url(#paint23_radial_479_481)"/>
<path style="mix-blend-mode:screen" d="M470.369 24.9284C470.369 -271.328 230.206 -511.491 -66.0501 -511.491C-362.306 -511.491 -602.469 -271.328 -602.469 24.9284C-602.469 321.185 -362.306 561.348 -66.05 561.348C230.206 561.348 470.369 321.185 470.369 24.9284Z" fill="url(#paint24_radial_479_481)"/>
<path style="mix-blend-mode:screen" d="M181.39 24.9284C181.39 -111.729 70.6075 -222.512 -66.05 -222.512C-202.707 -222.512 -313.49 -111.729 -313.49 24.9284C-313.49 161.586 -202.707 272.369 -66.05 272.369C70.6075 272.369 181.39 161.586 181.39 24.9284Z" fill="url(#paint25_radial_479_481)"/>
</g>
</g>
<defs>
<radialGradient id="paint0_radial_479_481" cx="0" cy="0" r="1" gradientUnits="userSpaceOnUse" gradientTransform="translate(-89.4389 -24.2446) rotate(-90) scale(43.0795 748.506)">
<stop offset="0.04" stop-color="#BDBDBD"/>
<stop offset="0.05" stop-color="#BABABA"/>
<stop offset="0.12" stop-color="#8F8F8F"/>
<stop offset="0.2" stop-color="#696969"/>
<stop offset="0.28" stop-color="#484848"/>
<stop offset="0.37" stop-color="#2E2E2E"/>
<stop offset="0.47" stop-color="#191919"/>
<stop offset="0.58" stop-color="#0B0B0B"/>
<stop offset="0.72" stop-color="#030303"/>
<stop offset="0.94"/>
</radialGradient>
<radialGradient id="paint1_radial_479_481" cx="0" cy="0" r="1" gradientUnits="userSpaceOnUse" gradientTransform="translate(-364.626 151.154) rotate(-25.59) scale(43.0795 748.506)">
<stop offset="0.04" stop-color="#BDBDBD"/>
<stop offset="0.05" stop-color="#BABABA"/>
<stop offset="0.12" stop-color="#8F8F8F"/>
<stop offset="0.2" stop-color="#696969"/>
<stop offset="0.28" stop-color="#484848"/>
<stop offset="0.37" stop-color="#2E2E2E"/>
<stop offset="0.47" stop-color="#191919"/>
<stop offset="0.58" stop-color="#0B0B0B"/>
<stop offset="0.72" stop-color="#030303"/>
<stop offset="0.94"/>
</radialGradient>
<radialGradient id="paint2_radial_479_481" cx="0" cy="0" r="1" gradientUnits="userSpaceOnUse" gradientTransform="translate(-327.34 -160.494) rotate(32.09) scale(43.0796 748.506)">
<stop offset="0.04" stop-color="#BDBDBD"/>
<stop offset="0.05" stop-color="#BABABA"/>
<stop offset="0.12" stop-color="#8F8F8F"/>
<stop offset="0.2" stop-color="#696969"/>
<stop offset="0.28" stop-color="#484848"/>
<stop offset="0.37" stop-color="#2E2E2E"/>
<stop offset="0.47" stop-color="#191919"/>
<stop offset="0.58" stop-color="#0B0B0B"/>
<stop offset="0.72" stop-color="#030303"/>
<stop offset="0.94"/>
</radialGradient>
<radialGradient id="paint3_radial_479_481" cx="0" cy="0" r="1" gradientUnits="userSpaceOnUse" gradientTransform="translate(-89.4389 -24.2446) rotate(-90) scale(43.0795 748.506)">
<stop offset="0.04" stop-color="#BDBDBD"/>
<stop offset="0.05" stop-color="#BABABA"/>
<stop offset="0.12" stop-color="#8F8F8F"/>
<stop offset="0.2" stop-color="#696969"/>
<stop offset="0.28" stop-color="#484848"/>
<stop offset="0.37" stop-color="#2E2E2E"/>
<stop offset="0.47" stop-color="#191919"/>
<stop offset="0.58" stop-color="#0B0B0B"/>
<stop offset="0.72" stop-color="#030303"/>
<stop offset="0.94"/>
</radialGradient>
<radialGradient id="paint4_radial_479_481" cx="0" cy="0" r="1" gradientUnits="userSpaceOnUse" gradientTransform="translate(-364.626 151.154) rotate(-25.59) scale(43.0795 748.506)">
<stop offset="0.04" stop-color="#BDBDBD"/>
<stop offset="0.05" stop-color="#BABABA"/>
<stop offset="0.12" stop-color="#8F8F8F"/>
<stop offset="0.2" stop-color="#696969"/>
<stop offset="0.28" stop-color="#484848"/>
<stop offset="0.37" stop-color="#2E2E2E"/>
<stop offset="0.47" stop-color="#191919"/>
<stop offset="0.58" stop-color="#0B0B0B"/>
<stop offset="0.72" stop-color="#030303"/>
<stop offset="0.94"/>
</radialGradient>
<radialGradient id="paint5_radial_479_481" cx="0" cy="0" r="1" gradientUnits="userSpaceOnUse" gradientTransform="translate(-327.34 -160.494) rotate(32.09) scale(43.0796 748.506)">
<stop offset="0.04" stop-color="#BDBDBD"/>
<stop offset="0.05" stop-color="#BABABA"/>
<stop offset="0.12" stop-color="#8F8F8F"/>
<stop offset="0.2" stop-color="#696969"/>
<stop offset="0.28" stop-color="#484848"/>
<stop offset="0.37" stop-color="#2E2E2E"/>
<stop offset="0.47" stop-color="#191919"/>
<stop offset="0.58" stop-color="#0B0B0B"/>
<stop offset="0.72" stop-color="#030303"/>
<stop offset="0.94"/>
</radialGradient>
<radialGradient id="paint6_radial_479_481" cx="0" cy="0" r="1" gradientUnits="userSpaceOnUse" gradientTransform="translate(-89.439 -24.2447) rotate(-90) scale(32.2804 560.872)">
<stop stop-color="#BDBDBD"/>
<stop offset="0.04" stop-color="#9B9B9B"/>
<stop offset="0.08" stop-color="#777777"/>
<stop offset="0.14" stop-color="#575757"/>
<stop offset="0.19" stop-color="#3B3B3B"/>
<stop offset="0.26" stop-color="#252525"/>
<stop offset="0.34" stop-color="#141414"/>
<stop offset="0.43" stop-color="#090909"/>
<stop offset="0.57" stop-color="#020202"/>
<stop offset="0.94"/>
</radialGradient>
<radialGradient id="paint7_radial_479_481" cx="0" cy="0" r="1" gradientUnits="userSpaceOnUse" gradientTransform="translate(-364.626 151.154) rotate(-25.59) scale(32.2804 560.872)">
<stop stop-color="#BDBDBD"/>
<stop offset="0.04" stop-color="#9B9B9B"/>
<stop offset="0.08" stop-color="#777777"/>
<stop offset="0.14" stop-color="#575757"/>
<stop offset="0.19" stop-color="#3B3B3B"/>
<stop offset="0.26" stop-color="#252525"/>
<stop offset="0.34" stop-color="#141414"/>
<stop offset="0.43" stop-color="#090909"/>
<stop offset="0.57" stop-color="#020202"/>
<stop offset="0.94"/>
</radialGradient>
<radialGradient id="paint8_radial_479_481" cx="0" cy="0" r="1" gradientUnits="userSpaceOnUse" gradientTransform="translate(-327.339 -160.493) rotate(32.09) scale(32.2803 560.872)">
<stop stop-color="#BDBDBD"/>
<stop offset="0.04" stop-color="#9B9B9B"/>
<stop offset="0.08" stop-color="#777777"/>
<stop offset="0.14" stop-color="#575757"/>
<stop offset="0.19" stop-color="#3B3B3B"/>
<stop offset="0.26" stop-color="#252525"/>
<stop offset="0.34" stop-color="#141414"/>
<stop offset="0.43" stop-color="#090909"/>
<stop offset="0.57" stop-color="#020202"/>
<stop offset="0.94"/>
</radialGradient>
<radialGradient id="paint9_radial_479_481" cx="0" cy="0" r="1" gradientUnits="userSpaceOnUse" gradientTransform="translate(-146.72 125.199) rotate(-60.81) scale(30.964 537.999)">
<stop offset="0.04" stop-color="#BDBDBD"/>
<stop offset="0.05" stop-color="#BABABA"/>
<stop offset="0.12" stop-color="#8F8F8F"/>
<stop offset="0.2" stop-color="#696969"/>
<stop offset="0.28" stop-color="#484848"/>
<stop offset="0.37" stop-color="#2E2E2E"/>
<stop offset="0.47" stop-color="#191919"/>
<stop offset="0.58" stop-color="#0B0B0B"/>
<stop offset="0.72" stop-color="#030303"/>
<stop offset="0.94"/>
</radialGradient>
<radialGradient id="paint10_radial_479_481" cx="0" cy="0" r="1" gradientUnits="userSpaceOnUse" gradientTransform="translate(-110.288 -98.8607) rotate(61.28) scale(30.964 537.999)">
<stop offset="0.04" stop-color="#BDBDBD"/>
<stop offset="0.05" stop-color="#BABABA"/>
<stop offset="0.12" stop-color="#8F8F8F"/>
<stop offset="0.2" stop-color="#696969"/>
<stop offset="0.28" stop-color="#484848"/>
<stop offset="0.37" stop-color="#2E2E2E"/>
<stop offset="0.47" stop-color="#191919"/>
<stop offset="0.58" stop-color="#0B0B0B"/>
<stop offset="0.72" stop-color="#030303"/>
<stop offset="0.94"/>
</radialGradient>
<radialGradient id="paint11_radial_479_481" cx="0" cy="0" r="1" gradientUnits="userSpaceOnUse" gradientTransform="translate(-146.72 125.199) rotate(-60.81) scale(30.964 537.999)">
<stop offset="0.04" stop-color="#BDBDBD"/>
<stop offset="0.05" stop-color="#BABABA"/>
<stop offset="0.12" stop-color="#8F8F8F"/>
<stop offset="0.2" stop-color="#696969"/>
<stop offset="0.28" stop-color="#484848"/>
<stop offset="0.37" stop-color="#2E2E2E"/>
<stop offset="0.47" stop-color="#191919"/>
<stop offset="0.58" stop-color="#0B0B0B"/>
<stop offset="0.72" stop-color="#030303"/>
<stop offset="0.94"/>
</radialGradient>
<radialGradient id="paint12_radial_479_481" cx="0" cy="0" r="1" gradientUnits="userSpaceOnUse" gradientTransform="translate(-110.288 -98.8607) rotate(61.28) scale(30.964 537.999)">
<stop offset="0.04" stop-color="#BDBDBD"/>
<stop offset="0.05" stop-color="#BABABA"/>
<stop offset="0.12" stop-color="#8F8F8F"/>
<stop offset="0.2" stop-color="#696969"/>
<stop offset="0.28" stop-color="#484848"/>
<stop offset="0.37" stop-color="#2E2E2E"/>
<stop offset="0.47" stop-color="#191919"/>
<stop offset="0.58" stop-color="#0B0B0B"/>
<stop offset="0.72" stop-color="#030303"/>
<stop offset="0.94"/>
</radialGradient>
<radialGradient id="paint13_radial_479_481" cx="0" cy="0" r="1" gradientUnits="userSpaceOnUse" gradientTransform="translate(-146.721 125.199) rotate(-60.81) scale(23.2013 403.123)">
<stop stop-color="#BDBDBD"/>
<stop offset="0.04" stop-color="#9B9B9B"/>
<stop offset="0.08" stop-color="#777777"/>
<stop offset="0.14" stop-color="#575757"/>
<stop offset="0.19" stop-color="#3B3B3B"/>
<stop offset="0.26" stop-color="#252525"/>
<stop offset="0.34" stop-color="#141414"/>
<stop offset="0.43" stop-color="#090909"/>
<stop offset="0.57" stop-color="#020202"/>
<stop offset="0.94"/>
</radialGradient>
<radialGradient id="paint14_radial_479_481" cx="0" cy="0" r="1" gradientUnits="userSpaceOnUse" gradientTransform="translate(-110.288 -98.8605) rotate(61.28) scale(23.2012 403.123)">
<stop stop-color="#BDBDBD"/>
<stop offset="0.04" stop-color="#9B9B9B"/>
<stop offset="0.08" stop-color="#777777"/>
<stop offset="0.14" stop-color="#575757"/>
<stop offset="0.19" stop-color="#3B3B3B"/>
<stop offset="0.26" stop-color="#252525"/>
<stop offset="0.34" stop-color="#141414"/>
<stop offset="0.43" stop-color="#090909"/>
<stop offset="0.57" stop-color="#020202"/>
<stop offset="0.94"/>
</radialGradient>
<radialGradient id="paint15_radial_479_481" cx="0" cy="0" r="1" gradientUnits="userSpaceOnUse" gradientTransform="translate(-233.176 142.994) rotate(-41.04) scale(22.892 397.748)">
<stop offset="0.04" stop-color="#BDBDBD"/>
<stop offset="0.05" stop-color="#BABABA"/>
<stop offset="0.12" stop-color="#8F8F8F"/>
<stop offset="0.2" stop-color="#696969"/>
<stop offset="0.28" stop-color="#484848"/>
<stop offset="0.37" stop-color="#2E2E2E"/>
<stop offset="0.47" stop-color="#191919"/>
<stop offset="0.58" stop-color="#0B0B0B"/>
<stop offset="0.72" stop-color="#030303"/>
<stop offset="0.94"/>
</radialGradient>
<radialGradient id="paint16_radial_479_481" cx="0" cy="0" r="1" gradientUnits="userSpaceOnUse" gradientTransform="translate(-262.566 -78.274) rotate(23.37) scale(22.892 397.748)">
<stop offset="0.04" stop-color="#BDBDBD"/>
<stop offset="0.05" stop-color="#BABABA"/>
<stop offset="0.12" stop-color="#8F8F8F"/>
<stop offset="0.2" stop-color="#696969"/>
<stop offset="0.28" stop-color="#484848"/>
<stop offset="0.37" stop-color="#2E2E2E"/>
<stop offset="0.47" stop-color="#191919"/>
<stop offset="0.58" stop-color="#0B0B0B"/>
<stop offset="0.72" stop-color="#030303"/>
<stop offset="0.94"/>
</radialGradient>
<radialGradient id="paint17_radial_479_481" cx="0" cy="0" r="1" gradientUnits="userSpaceOnUse" gradientTransform="translate(-54.7547 14.9209) rotate(80.8195) scale(22.9571 398.88)">
<stop offset="0.04" stop-color="#BDBDBD"/>
<stop offset="0.05" stop-color="#BABABA"/>
<stop offset="0.12" stop-color="#8F8F8F"/>
<stop offset="0.2" stop-color="#696969"/>
<stop offset="0.28" stop-color="#484848"/>
<stop offset="0.37" stop-color="#2E2E2E"/>
<stop offset="0.47" stop-color="#191919"/>
<stop offset="0.58" stop-color="#0B0B0B"/>
<stop offset="0.72" stop-color="#030303"/>
<stop offset="0.94"/>
</radialGradient>
<radialGradient id="paint18_radial_479_481" cx="0" cy="0" r="1" gradientUnits="userSpaceOnUse" gradientTransform="translate(-233.176 142.994) rotate(-41.04) scale(22.892 397.748)">
<stop offset="0.04" stop-color="#BDBDBD"/>
<stop offset="0.05" stop-color="#BABABA"/>
<stop offset="0.12" stop-color="#8F8F8F"/>
<stop offset="0.2" stop-color="#696969"/>
<stop offset="0.28" stop-color="#484848"/>
<stop offset="0.37" stop-color="#2E2E2E"/>
<stop offset="0.47" stop-color="#191919"/>
<stop offset="0.58" stop-color="#0B0B0B"/>
<stop offset="0.72" stop-color="#030303"/>
<stop offset="0.94"/>
</radialGradient>
<radialGradient id="paint19_radial_479_481" cx="0" cy="0" r="1" gradientUnits="userSpaceOnUse" gradientTransform="translate(-262.566 -78.274) rotate(23.37) scale(22.892 397.748)">
<stop offset="0.04" stop-color="#BDBDBD"/>
<stop offset="0.05" stop-color="#BABABA"/>
<stop offset="0.12" stop-color="#8F8F8F"/>
<stop offset="0.2" stop-color="#696969"/>
<stop offset="0.28" stop-color="#484848"/>
<stop offset="0.37" stop-color="#2E2E2E"/>
<stop offset="0.47" stop-color="#191919"/>
<stop offset="0.58" stop-color="#0B0B0B"/>
<stop offset="0.72" stop-color="#030303"/>
<stop offset="0.94"/>
</radialGradient>
<radialGradient id="paint20_radial_479_481" cx="0" cy="0" r="1" gradientUnits="userSpaceOnUse" gradientTransform="translate(-54.7547 14.9209) rotate(80.8195) scale(22.9571 398.88)">
<stop offset="0.04" stop-color="#BDBDBD"/>
<stop offset="0.05" stop-color="#BABABA"/>
<stop offset="0.12" stop-color="#8F8F8F"/>
<stop offset="0.2" stop-color="#696969"/>
<stop offset="0.28" stop-color="#484848"/>
<stop offset="0.37" stop-color="#2E2E2E"/>
<stop offset="0.47" stop-color="#191919"/>
<stop offset="0.58" stop-color="#0B0B0B"/>
<stop offset="0.72" stop-color="#030303"/>
<stop offset="0.94"/>
</radialGradient>
<radialGradient id="paint21_radial_479_481" cx="0" cy="0" r="1" gradientUnits="userSpaceOnUse" gradientTransform="translate(-233.176 142.994) rotate(-41.04) scale(17.1548 298.066)">
<stop stop-color="#BDBDBD"/>
<stop offset="0.04" stop-color="#9B9B9B"/>
<stop offset="0.08" stop-color="#777777"/>
<stop offset="0.14" stop-color="#575757"/>
<stop offset="0.19" stop-color="#3B3B3B"/>
<stop offset="0.26" stop-color="#252525"/>
<stop offset="0.34" stop-color="#141414"/>
<stop offset="0.43" stop-color="#090909"/>
<stop offset="0.57" stop-color="#020202"/>
<stop offset="0.94"/>
</radialGradient>
<radialGradient id="paint22_radial_479_481" cx="0" cy="0" r="1" gradientUnits="userSpaceOnUse" gradientTransform="translate(-262.566 -78.274) rotate(23.37) scale(17.1548 298.066)">
<stop stop-color="#BDBDBD"/>
<stop offset="0.04" stop-color="#9B9B9B"/>
<stop offset="0.08" stop-color="#777777"/>
<stop offset="0.14" stop-color="#575757"/>
<stop offset="0.19" stop-color="#3B3B3B"/>
<stop offset="0.26" stop-color="#252525"/>
<stop offset="0.34" stop-color="#141414"/>
<stop offset="0.43" stop-color="#090909"/>
<stop offset="0.57" stop-color="#020202"/>
<stop offset="0.94"/>
</radialGradient>
<radialGradient id="paint23_radial_479_481" cx="0" cy="0" r="1" gradientUnits="userSpaceOnUse" gradientTransform="translate(-41.6577 34.3687) rotate(81.05) scale(17.1548 298.066)">
<stop stop-color="#BDBDBD"/>
<stop offset="0.04" stop-color="#9B9B9B"/>
<stop offset="0.08" stop-color="#777777"/>
<stop offset="0.14" stop-color="#575757"/>
<stop offset="0.19" stop-color="#3B3B3B"/>
<stop offset="0.26" stop-color="#252525"/>
<stop offset="0.34" stop-color="#141414"/>
<stop offset="0.43" stop-color="#090909"/>
<stop offset="0.57" stop-color="#020202"/>
<stop offset="0.94"/>
</radialGradient>
<radialGradient id="paint24_radial_479_481" cx="0" cy="0" r="1" gradientUnits="userSpaceOnUse" gradientTransform="translate(-66.0501 24.9284) rotate(-90) scale(536.419 536.419)">
<stop stop-color="white"/>
<stop offset="0.06" stop-color="#E1E1E1"/>
<stop offset="0.2" stop-color="#9F9F9F"/>
<stop offset="0.34" stop-color="#686868"/>
<stop offset="0.46" stop-color="#3D3D3D"/>
<stop offset="0.58" stop-color="#1E1E1E"/>
<stop offset="0.67" stop-color="#0B0B0B"/>
<stop offset="0.74" stop-color="#040404"/>
<stop offset="1"/>
</radialGradient>
<radialGradient id="paint25_radial_479_481" cx="0" cy="0" r="1" gradientUnits="userSpaceOnUse" gradientTransform="translate(-66.05 24.9283) rotate(-90) scale(247.44 247.44)">
<stop offset="0.27" stop-color="white"/>
<stop offset="0.31" stop-color="#E8E8E8"/>
<stop offset="0.43" stop-color="#A2A2A2"/>
<stop offset="0.55" stop-color="#686868"/>
<stop offset="0.66" stop-color="#3B3B3B"/>
<stop offset="0.75" stop-color="#1B1B1B"/>
<stop offset="0.83" stop-color="#070707"/>
<stop offset="0.88"/>
</radialGradient>
<clipPath id="clip0_479_481">
<rect width="560" height="412" fill="white"/>
</clipPath>
<clipPath id="clip1_479_481">
<rect width="560" height="437" fill="white" transform="translate(0 495) rotate(-90)"/>
</clipPath>
</defs>
</svg>
