<svg width="624" height="412" viewBox="0 0 624 412" fill="none" xmlns="http://www.w3.org/2000/svg">
<g clip-path="url(#clip0_479_518)">
<rect width="624" height="412" fill="#050029"/>
<rect width="624" height="412" fill="#5B66FF" fill-opacity="0.2"/>
<g style="mix-blend-mode:color-dodge">
<path style="mix-blend-mode:screen" d="M244.603 342C273.472 342 296.874 171.42 296.874 -39C296.874 -249.42 273.472 -420 244.603 -420C215.735 -420 192.332 -249.42 192.332 -39C192.332 171.42 215.735 342 244.603 342Z" fill="url(#paint0_radial_479_518)"/>
<path style="mix-blend-mode:screen" d="M267.179 -19.9499C734.313 -110.836 1102.89 -193.09 1090.42 -203.667C1077.95 -214.245 689.159 -149.142 222.025 -58.2556C-245.109 32.631 -613.688 114.884 -601.218 125.462C-588.749 136.04 -199.954 70.9367 267.179 -19.9499Z" fill="url(#paint1_radial_479_518)"/>
<path style="mix-blend-mode:screen" d="M1039.15 163.403C1054.48 153.466 711.194 54.7908 272.388 -56.9953C-166.418 -168.781 -534.573 -251.347 -549.91 -241.41C-565.246 -231.474 -221.956 -132.798 216.85 -21.0124C655.656 90.7736 1023.81 173.339 1039.15 163.403Z" fill="url(#paint2_radial_479_518)"/>
<path style="mix-blend-mode:screen" d="M244.603 342C273.472 342 296.874 171.42 296.874 -39C296.874 -249.42 273.472 -420 244.603 -420C215.735 -420 192.332 -249.42 192.332 -39C192.332 171.42 215.735 342 244.603 342Z" fill="url(#paint3_radial_479_518)"/>
<path style="mix-blend-mode:screen" d="M267.179 -19.9499C734.313 -110.836 1102.89 -193.09 1090.42 -203.667C1077.95 -214.245 689.159 -149.142 222.025 -58.2556C-245.109 32.631 -613.688 114.884 -601.218 125.462C-588.749 136.04 -199.954 70.9367 267.179 -19.9499Z" fill="url(#paint4_radial_479_518)"/>
<path style="mix-blend-mode:screen" d="M1039.15 163.403C1054.48 153.466 711.194 54.7908 272.388 -56.9953C-166.418 -168.781 -534.573 -251.347 -549.91 -241.41C-565.246 -231.474 -221.956 -132.798 216.85 -21.0124C655.656 90.7736 1023.81 173.339 1039.15 163.403Z" fill="url(#paint5_radial_479_518)"/>
<path style="mix-blend-mode:screen" d="M244.604 246.51C266.239 246.51 283.777 118.683 283.777 -39.0002C283.777 -196.683 266.239 -324.51 244.604 -324.51C222.968 -324.51 205.43 -196.683 205.43 -39.0002C205.43 118.683 222.968 246.51 244.604 246.51Z" fill="url(#paint6_radial_479_518)"/>
<path style="mix-blend-mode:screen" d="M261.523 -24.7488C611.579 -92.8566 887.781 -154.495 878.436 -162.423C869.091 -170.35 577.739 -121.564 227.682 -53.4565C-122.375 14.6513 -398.576 76.29 -389.231 84.2174C-379.886 92.1448 -88.5339 43.3589 261.523 -24.7488Z" fill="url(#paint7_radial_479_518)"/>
<path style="mix-blend-mode:screen" d="M840.016 112.674C851.509 105.227 594.259 31.2821 265.43 -52.4871C-63.3985 -136.256 -339.284 -198.128 -350.778 -190.681C-362.272 -183.235 -105.021 -109.29 223.808 -25.5204C552.636 58.2488 828.522 120.12 840.016 112.674Z" fill="url(#paint8_radial_479_518)"/>
<path style="mix-blend-mode:screen" d="M277.261 -31.6582C458.816 -163.689 591.306 -274.054 573.186 -278.167C555.067 -282.279 393.199 -178.581 211.644 -46.5506C30.09 85.4799 -102.4 195.845 -84.2805 199.958C-66.1609 204.07 95.7069 100.372 277.261 -31.6582Z" fill="url(#paint9_radial_479_518)"/>
<path style="mix-blend-mode:screen" d="M568.527 201.027C586.729 196.975 456.471 86.1714 277.589 -46.4597C98.7065 -179.091 -61.062 -283.325 -79.264 -279.273C-97.466 -275.221 32.7912 -164.418 211.674 -31.7865C390.556 100.845 550.325 205.079 568.527 201.027Z" fill="url(#paint10_radial_479_518)"/>
<path style="mix-blend-mode:screen" d="M277.261 -31.6582C458.816 -163.689 591.306 -274.054 573.186 -278.167C555.067 -282.279 393.199 -178.581 211.644 -46.5506C30.09 85.4799 -102.4 195.845 -84.2805 199.958C-66.1609 204.07 95.7069 100.372 277.261 -31.6582Z" fill="url(#paint11_radial_479_518)"/>
<path style="mix-blend-mode:screen" d="M568.527 201.027C586.729 196.975 456.471 86.1714 277.589 -46.4597C98.7065 -179.091 -61.062 -283.325 -79.264 -279.273C-97.466 -275.221 32.7912 -164.418 211.674 -31.7865C390.556 100.845 550.325 205.079 568.527 201.027Z" fill="url(#paint12_radial_479_518)"/>
<path style="mix-blend-mode:screen" d="M269.02 -33.5287C405.063 -132.462 504.348 -215.16 490.78 -218.239C477.211 -221.319 355.927 -143.614 219.885 -44.6805C83.8419 54.2528 -15.4429 136.951 -1.87458 140.03C11.6938 143.11 132.977 65.4046 269.02 -33.5287Z" fill="url(#paint13_radial_479_518)"/>
<path style="mix-blend-mode:screen" d="M487.333 140.826C500.963 137.792 403.351 54.7663 269.311 -44.617C135.27 -144 15.5593 -222.107 1.92924 -219.073C-11.7008 -216.038 85.9113 -133.013 219.952 -33.6294C353.992 65.754 473.703 143.86 487.333 140.826Z" fill="url(#paint14_radial_479_518)"/>
<path style="mix-blend-mode:screen" d="M262.833 -30.5445C470.425 -103.961 630.543 -167.289 620.467 -171.992C610.39 -176.694 433.935 -120.991 226.344 -47.574C18.752 25.8426 -141.366 89.1706 -131.289 93.8732C-121.213 98.5758 55.2416 42.8721 262.833 -30.5445Z" fill="url(#paint15_radial_479_518)"/>
<path style="mix-blend-mode:screen" d="M701.84 41.1701C707.928 35.4468 508.05 -5.14856 255.4 -49.5022C2.75034 -93.8558 -206.998 -125.172 -213.085 -119.449C-219.173 -113.725 -19.2944 -73.13 233.355 -28.7764C486.005 15.5773 695.753 46.8934 701.84 41.1701Z" fill="url(#paint16_radial_479_518)"/>
<path style="mix-blend-mode:screen" d="M348.515 154.658C363.708 153.66 340.326 63.1138 296.29 -47.5837C252.253 -158.281 204.238 -247.211 189.045 -246.213C173.851 -245.215 197.234 -154.669 241.27 -43.9712C285.307 66.7263 333.322 155.656 348.515 154.658Z" fill="url(#paint17_radial_479_518)"/>
<path style="mix-blend-mode:screen" d="M262.833 -30.5445C470.425 -103.961 630.543 -167.289 620.467 -171.992C610.39 -176.694 433.935 -120.991 226.344 -47.574C18.752 25.8426 -141.366 89.1706 -131.289 93.8732C-121.213 98.5758 55.2416 42.8721 262.833 -30.5445Z" fill="url(#paint18_radial_479_518)"/>
<path style="mix-blend-mode:screen" d="M701.84 41.1701C707.928 35.4468 508.05 -5.14856 255.4 -49.5022C2.75034 -93.8558 -206.998 -125.172 -213.085 -119.449C-219.173 -113.725 -19.2944 -73.13 233.355 -28.7764C486.005 15.5773 695.753 46.8934 701.84 41.1701Z" fill="url(#paint19_radial_479_518)"/>
<path style="mix-blend-mode:screen" d="M348.515 154.658C363.708 153.66 340.326 63.1138 296.29 -47.5837C252.253 -158.281 204.238 -247.211 189.045 -246.213C173.851 -245.215 197.234 -154.669 241.27 -43.9712C285.307 66.7263 333.322 155.656 348.515 154.658Z" fill="url(#paint20_radial_479_518)"/>
<path style="mix-blend-mode:screen" d="M258.262 -32.6773C413.827 -87.6941 533.815 -135.151 526.263 -138.676C518.711 -142.2 386.479 -100.457 230.914 -45.4404C75.3493 9.57637 -44.6387 57.0334 -37.0868 60.5578C-29.5349 64.0823 102.697 22.3395 258.262 -32.6773Z" fill="url(#paint21_radial_479_518)"/>
<path style="mix-blend-mode:screen" d="M587.19 21.0426C591.752 16.7532 441.969 -13.6686 252.638 -46.9062C63.3081 -80.1439 -93.873 -103.611 -98.4354 -99.3216C-102.998 -95.0321 46.7863 -64.6105 236.117 -31.3728C425.447 1.86483 582.628 25.3321 587.19 21.0426Z" fill="url(#paint22_radial_479_518)"/>
<path style="mix-blend-mode:screen" d="M302.737 110.807C314.099 110.08 297.298 42.3902 265.211 -40.3818C233.124 -123.154 197.902 -189.665 186.54 -188.938C175.178 -188.211 191.979 -120.521 224.066 -37.7493C256.153 45.0228 291.375 111.533 302.737 110.807Z" fill="url(#paint23_radial_479_518)"/>
<path style="mix-blend-mode:screen" d="M256.934 240.518C627.631 240.518 928.14 118.432 928.14 -32.1689C928.14 -182.77 627.631 -304.856 256.934 -304.856C-113.763 -304.856 -414.272 -182.77 -414.272 -32.1689C-414.272 118.432 -113.763 240.518 256.934 240.518Z" fill="url(#paint24_radial_479_518)"/>
<path style="mix-blend-mode:screen" d="M256.933 93.6166C427.929 93.6166 566.549 37.3005 566.549 -32.169C566.549 -101.638 427.929 -157.955 256.933 -157.955C85.9377 -157.955 -52.6816 -101.638 -52.6816 -32.169C-52.6816 37.3005 85.9377 93.6166 256.933 93.6166Z" fill="url(#paint25_radial_479_518)"/>
</g>
</g>
<defs>
<radialGradient id="paint0_radial_479_518" cx="0" cy="0" r="1" gradientUnits="userSpaceOnUse" gradientTransform="translate(318.462 -44.0587) scale(53.9042 380.501)">
<stop offset="0.04" stop-color="#BDBDBD"/>
<stop offset="0.05" stop-color="#BABABA"/>
<stop offset="0.12" stop-color="#8F8F8F"/>
<stop offset="0.2" stop-color="#696969"/>
<stop offset="0.28" stop-color="#484848"/>
<stop offset="0.37" stop-color="#2E2E2E"/>
<stop offset="0.47" stop-color="#191919"/>
<stop offset="0.58" stop-color="#0B0B0B"/>
<stop offset="0.72" stop-color="#030303"/>
<stop offset="0.94"/>
</radialGradient>
<radialGradient id="paint1_radial_479_518" cx="0" cy="0" r="1" gradientTransform="matrix(23.2827 19.7512 -844.713 164.349 98.991 -183.95)" gradientUnits="userSpaceOnUse">
<stop offset="0.04" stop-color="#BDBDBD"/>
<stop offset="0.05" stop-color="#BABABA"/>
<stop offset="0.12" stop-color="#8F8F8F"/>
<stop offset="0.2" stop-color="#696969"/>
<stop offset="0.28" stop-color="#484848"/>
<stop offset="0.37" stop-color="#2E2E2E"/>
<stop offset="0.47" stop-color="#191919"/>
<stop offset="0.58" stop-color="#0B0B0B"/>
<stop offset="0.72" stop-color="#030303"/>
<stop offset="0.94"/>
</radialGradient>
<radialGradient id="paint2_radial_479_518" cx="0" cy="0" r="1" gradientTransform="matrix(-28.6367 18.5535 -793.489 -202.142 488.948 -164.995)" gradientUnits="userSpaceOnUse">
<stop offset="0.04" stop-color="#BDBDBD"/>
<stop offset="0.05" stop-color="#BABABA"/>
<stop offset="0.12" stop-color="#8F8F8F"/>
<stop offset="0.2" stop-color="#696969"/>
<stop offset="0.28" stop-color="#484848"/>
<stop offset="0.37" stop-color="#2E2E2E"/>
<stop offset="0.47" stop-color="#191919"/>
<stop offset="0.58" stop-color="#0B0B0B"/>
<stop offset="0.72" stop-color="#030303"/>
<stop offset="0.94"/>
</radialGradient>
<radialGradient id="paint3_radial_479_518" cx="0" cy="0" r="1" gradientUnits="userSpaceOnUse" gradientTransform="translate(318.462 -44.0587) scale(53.9042 380.501)">
<stop offset="0.04" stop-color="#BDBDBD"/>
<stop offset="0.05" stop-color="#BABABA"/>
<stop offset="0.12" stop-color="#8F8F8F"/>
<stop offset="0.2" stop-color="#696969"/>
<stop offset="0.28" stop-color="#484848"/>
<stop offset="0.37" stop-color="#2E2E2E"/>
<stop offset="0.47" stop-color="#191919"/>
<stop offset="0.58" stop-color="#0B0B0B"/>
<stop offset="0.72" stop-color="#030303"/>
<stop offset="0.94"/>
</radialGradient>
<radialGradient id="paint4_radial_479_518" cx="0" cy="0" r="1" gradientTransform="matrix(23.2827 19.7512 -844.713 164.349 98.991 -183.95)" gradientUnits="userSpaceOnUse">
<stop offset="0.04" stop-color="#BDBDBD"/>
<stop offset="0.05" stop-color="#BABABA"/>
<stop offset="0.12" stop-color="#8F8F8F"/>
<stop offset="0.2" stop-color="#696969"/>
<stop offset="0.28" stop-color="#484848"/>
<stop offset="0.37" stop-color="#2E2E2E"/>
<stop offset="0.47" stop-color="#191919"/>
<stop offset="0.58" stop-color="#0B0B0B"/>
<stop offset="0.72" stop-color="#030303"/>
<stop offset="0.94"/>
</radialGradient>
<radialGradient id="paint5_radial_479_518" cx="0" cy="0" r="1" gradientTransform="matrix(-28.6367 18.5535 -793.489 -202.142 488.948 -164.995)" gradientUnits="userSpaceOnUse">
<stop offset="0.04" stop-color="#BDBDBD"/>
<stop offset="0.05" stop-color="#BABABA"/>
<stop offset="0.12" stop-color="#8F8F8F"/>
<stop offset="0.2" stop-color="#696969"/>
<stop offset="0.28" stop-color="#484848"/>
<stop offset="0.37" stop-color="#2E2E2E"/>
<stop offset="0.47" stop-color="#191919"/>
<stop offset="0.58" stop-color="#0B0B0B"/>
<stop offset="0.72" stop-color="#030303"/>
<stop offset="0.94"/>
</radialGradient>
<radialGradient id="paint6_radial_479_518" cx="0" cy="0" r="1" gradientUnits="userSpaceOnUse" gradientTransform="translate(318.463 -44.0589) scale(40.3916 285.118)">
<stop stop-color="#BDBDBD"/>
<stop offset="0.04" stop-color="#9B9B9B"/>
<stop offset="0.08" stop-color="#777777"/>
<stop offset="0.14" stop-color="#575757"/>
<stop offset="0.19" stop-color="#3B3B3B"/>
<stop offset="0.26" stop-color="#252525"/>
<stop offset="0.34" stop-color="#141414"/>
<stop offset="0.43" stop-color="#090909"/>
<stop offset="0.57" stop-color="#020202"/>
<stop offset="0.94"/>
</radialGradient>
<radialGradient id="paint7_radial_479_518" cx="0" cy="0" r="1" gradientTransform="matrix(17.4463 14.8 -632.962 123.15 98.9913 -183.949)" gradientUnits="userSpaceOnUse">
<stop stop-color="#BDBDBD"/>
<stop offset="0.04" stop-color="#9B9B9B"/>
<stop offset="0.08" stop-color="#777777"/>
<stop offset="0.14" stop-color="#575757"/>
<stop offset="0.19" stop-color="#3B3B3B"/>
<stop offset="0.26" stop-color="#252525"/>
<stop offset="0.34" stop-color="#141414"/>
<stop offset="0.43" stop-color="#090909"/>
<stop offset="0.57" stop-color="#020202"/>
<stop offset="0.94"/>
</radialGradient>
<radialGradient id="paint8_radial_479_518" cx="0" cy="0" r="1" gradientTransform="matrix(-21.458 13.9025 -594.578 -151.469 488.947 -164.994)" gradientUnits="userSpaceOnUse">
<stop stop-color="#BDBDBD"/>
<stop offset="0.04" stop-color="#9B9B9B"/>
<stop offset="0.08" stop-color="#777777"/>
<stop offset="0.14" stop-color="#575757"/>
<stop offset="0.19" stop-color="#3B3B3B"/>
<stop offset="0.26" stop-color="#252525"/>
<stop offset="0.34" stop-color="#141414"/>
<stop offset="0.43" stop-color="#090909"/>
<stop offset="0.57" stop-color="#020202"/>
<stop offset="0.94"/>
</radialGradient>
<radialGradient id="paint9_radial_479_518" cx="0" cy="0" r="1" gradientTransform="matrix(33.8241 7.67673 -328.316 238.759 131.469 -73.1772)" gradientUnits="userSpaceOnUse">
<stop offset="0.04" stop-color="#BDBDBD"/>
<stop offset="0.05" stop-color="#BABABA"/>
<stop offset="0.12" stop-color="#8F8F8F"/>
<stop offset="0.2" stop-color="#696969"/>
<stop offset="0.28" stop-color="#484848"/>
<stop offset="0.37" stop-color="#2E2E2E"/>
<stop offset="0.47" stop-color="#191919"/>
<stop offset="0.58" stop-color="#0B0B0B"/>
<stop offset="0.72" stop-color="#030303"/>
<stop offset="0.94"/>
</radialGradient>
<radialGradient id="paint10_radial_479_518" cx="0" cy="0" r="1" gradientTransform="matrix(-33.978 7.56375 -323.484 -239.845 411.828 -54.6573)" gradientUnits="userSpaceOnUse">
<stop offset="0.04" stop-color="#BDBDBD"/>
<stop offset="0.05" stop-color="#BABABA"/>
<stop offset="0.12" stop-color="#8F8F8F"/>
<stop offset="0.2" stop-color="#696969"/>
<stop offset="0.28" stop-color="#484848"/>
<stop offset="0.37" stop-color="#2E2E2E"/>
<stop offset="0.47" stop-color="#191919"/>
<stop offset="0.58" stop-color="#0B0B0B"/>
<stop offset="0.72" stop-color="#030303"/>
<stop offset="0.94"/>
</radialGradient>
<radialGradient id="paint11_radial_479_518" cx="0" cy="0" r="1" gradientTransform="matrix(33.8241 7.67673 -328.316 238.759 131.469 -73.1772)" gradientUnits="userSpaceOnUse">
<stop offset="0.04" stop-color="#BDBDBD"/>
<stop offset="0.05" stop-color="#BABABA"/>
<stop offset="0.12" stop-color="#8F8F8F"/>
<stop offset="0.2" stop-color="#696969"/>
<stop offset="0.28" stop-color="#484848"/>
<stop offset="0.37" stop-color="#2E2E2E"/>
<stop offset="0.47" stop-color="#191919"/>
<stop offset="0.58" stop-color="#0B0B0B"/>
<stop offset="0.72" stop-color="#030303"/>
<stop offset="0.94"/>
</radialGradient>
<radialGradient id="paint12_radial_479_518" cx="0" cy="0" r="1" gradientTransform="matrix(-33.978 7.56375 -323.484 -239.845 411.828 -54.6573)" gradientUnits="userSpaceOnUse">
<stop offset="0.04" stop-color="#BDBDBD"/>
<stop offset="0.05" stop-color="#BABABA"/>
<stop offset="0.12" stop-color="#8F8F8F"/>
<stop offset="0.2" stop-color="#696969"/>
<stop offset="0.28" stop-color="#484848"/>
<stop offset="0.37" stop-color="#2E2E2E"/>
<stop offset="0.47" stop-color="#191919"/>
<stop offset="0.58" stop-color="#0B0B0B"/>
<stop offset="0.72" stop-color="#030303"/>
<stop offset="0.94"/>
</radialGradient>
<radialGradient id="paint13_radial_479_518" cx="0" cy="0" r="1" gradientTransform="matrix(25.3444 5.75218 -246.007 178.902 131.468 -73.1776)" gradientUnits="userSpaceOnUse">
<stop stop-color="#BDBDBD"/>
<stop offset="0.04" stop-color="#9B9B9B"/>
<stop offset="0.08" stop-color="#777777"/>
<stop offset="0.14" stop-color="#575757"/>
<stop offset="0.19" stop-color="#3B3B3B"/>
<stop offset="0.26" stop-color="#252525"/>
<stop offset="0.34" stop-color="#141414"/>
<stop offset="0.43" stop-color="#090909"/>
<stop offset="0.57" stop-color="#020202"/>
<stop offset="0.94"/>
</radialGradient>
<radialGradient id="paint14_radial_479_518" cx="0" cy="0" r="1" gradientTransform="matrix(-25.4596 5.66751 -242.387 -179.716 411.828 -54.6573)" gradientUnits="userSpaceOnUse">
<stop stop-color="#BDBDBD"/>
<stop offset="0.04" stop-color="#9B9B9B"/>
<stop offset="0.08" stop-color="#777777"/>
<stop offset="0.14" stop-color="#575757"/>
<stop offset="0.19" stop-color="#3B3B3B"/>
<stop offset="0.26" stop-color="#252525"/>
<stop offset="0.34" stop-color="#141414"/>
<stop offset="0.43" stop-color="#090909"/>
<stop offset="0.57" stop-color="#020202"/>
<stop offset="0.94"/>
</radialGradient>
<radialGradient id="paint15_radial_479_518" cx="0" cy="0" r="1" gradientTransform="matrix(18.8073 8.77727 -375.384 132.758 109.202 -117.127)" gradientUnits="userSpaceOnUse">
<stop offset="0.04" stop-color="#BDBDBD"/>
<stop offset="0.05" stop-color="#BABABA"/>
<stop offset="0.12" stop-color="#8F8F8F"/>
<stop offset="0.2" stop-color="#696969"/>
<stop offset="0.28" stop-color="#484848"/>
<stop offset="0.37" stop-color="#2E2E2E"/>
<stop offset="0.47" stop-color="#191919"/>
<stop offset="0.58" stop-color="#0B0B0B"/>
<stop offset="0.72" stop-color="#030303"/>
<stop offset="0.94"/>
</radialGradient>
<radialGradient id="paint16_radial_479_518" cx="0" cy="0" r="1" gradientTransform="matrix(-11.3622 10.6824 -456.862 -80.2039 386.068 -132.067)" gradientUnits="userSpaceOnUse">
<stop offset="0.04" stop-color="#BDBDBD"/>
<stop offset="0.05" stop-color="#BABABA"/>
<stop offset="0.12" stop-color="#8F8F8F"/>
<stop offset="0.2" stop-color="#696969"/>
<stop offset="0.28" stop-color="#484848"/>
<stop offset="0.37" stop-color="#2E2E2E"/>
<stop offset="0.47" stop-color="#191919"/>
<stop offset="0.58" stop-color="#0B0B0B"/>
<stop offset="0.72" stop-color="#030303"/>
<stop offset="0.94"/>
</radialGradient>
<radialGradient id="paint17_radial_479_518" cx="0" cy="0" r="1" gradientTransform="matrix(-28.3576 1.86193 -79.6306 -200.172 269.456 -26.4272)" gradientUnits="userSpaceOnUse">
<stop offset="0.04" stop-color="#BDBDBD"/>
<stop offset="0.05" stop-color="#BABABA"/>
<stop offset="0.12" stop-color="#8F8F8F"/>
<stop offset="0.2" stop-color="#696969"/>
<stop offset="0.28" stop-color="#484848"/>
<stop offset="0.37" stop-color="#2E2E2E"/>
<stop offset="0.47" stop-color="#191919"/>
<stop offset="0.58" stop-color="#0B0B0B"/>
<stop offset="0.72" stop-color="#030303"/>
<stop offset="0.94"/>
</radialGradient>
<radialGradient id="paint18_radial_479_518" cx="0" cy="0" r="1" gradientTransform="matrix(18.8073 8.77727 -375.384 132.758 109.202 -117.127)" gradientUnits="userSpaceOnUse">
<stop offset="0.04" stop-color="#BDBDBD"/>
<stop offset="0.05" stop-color="#BABABA"/>
<stop offset="0.12" stop-color="#8F8F8F"/>
<stop offset="0.2" stop-color="#696969"/>
<stop offset="0.28" stop-color="#484848"/>
<stop offset="0.37" stop-color="#2E2E2E"/>
<stop offset="0.47" stop-color="#191919"/>
<stop offset="0.58" stop-color="#0B0B0B"/>
<stop offset="0.72" stop-color="#030303"/>
<stop offset="0.94"/>
</radialGradient>
<radialGradient id="paint19_radial_479_518" cx="0" cy="0" r="1" gradientTransform="matrix(-11.3622 10.6824 -456.862 -80.2039 386.068 -132.067)" gradientUnits="userSpaceOnUse">
<stop offset="0.04" stop-color="#BDBDBD"/>
<stop offset="0.05" stop-color="#BABABA"/>
<stop offset="0.12" stop-color="#8F8F8F"/>
<stop offset="0.2" stop-color="#696969"/>
<stop offset="0.28" stop-color="#484848"/>
<stop offset="0.37" stop-color="#2E2E2E"/>
<stop offset="0.47" stop-color="#191919"/>
<stop offset="0.58" stop-color="#0B0B0B"/>
<stop offset="0.72" stop-color="#030303"/>
<stop offset="0.94"/>
</radialGradient>
<radialGradient id="paint20_radial_479_518" cx="0" cy="0" r="1" gradientTransform="matrix(-28.3576 1.86193 -79.6306 -200.172 269.456 -26.4272)" gradientUnits="userSpaceOnUse">
<stop offset="0.04" stop-color="#BDBDBD"/>
<stop offset="0.05" stop-color="#BABABA"/>
<stop offset="0.12" stop-color="#8F8F8F"/>
<stop offset="0.2" stop-color="#696969"/>
<stop offset="0.28" stop-color="#484848"/>
<stop offset="0.37" stop-color="#2E2E2E"/>
<stop offset="0.47" stop-color="#191919"/>
<stop offset="0.58" stop-color="#0B0B0B"/>
<stop offset="0.72" stop-color="#030303"/>
<stop offset="0.94"/>
</radialGradient>
<radialGradient id="paint21_radial_479_518" cx="0" cy="0" r="1" gradientTransform="matrix(14.0939 6.57754 -281.306 99.4864 109.202 -117.127)" gradientUnits="userSpaceOnUse">
<stop stop-color="#BDBDBD"/>
<stop offset="0.04" stop-color="#9B9B9B"/>
<stop offset="0.08" stop-color="#777777"/>
<stop offset="0.14" stop-color="#575757"/>
<stop offset="0.19" stop-color="#3B3B3B"/>
<stop offset="0.26" stop-color="#252525"/>
<stop offset="0.34" stop-color="#141414"/>
<stop offset="0.43" stop-color="#090909"/>
<stop offset="0.57" stop-color="#020202"/>
<stop offset="0.94"/>
</radialGradient>
<radialGradient id="paint22_radial_479_518" cx="0" cy="0" r="1" gradientTransform="matrix(-8.51461 8.0052 -342.364 -60.1034 386.068 -132.068)" gradientUnits="userSpaceOnUse">
<stop stop-color="#BDBDBD"/>
<stop offset="0.04" stop-color="#9B9B9B"/>
<stop offset="0.08" stop-color="#777777"/>
<stop offset="0.14" stop-color="#575757"/>
<stop offset="0.19" stop-color="#3B3B3B"/>
<stop offset="0.26" stop-color="#252525"/>
<stop offset="0.34" stop-color="#141414"/>
<stop offset="0.43" stop-color="#090909"/>
<stop offset="0.57" stop-color="#020202"/>
<stop offset="0.94"/>
</radialGradient>
<radialGradient id="paint23_radial_479_518" cx="0" cy="0" r="1" gradientTransform="matrix(-21.204 1.35669 -58.0225 -149.676 245.122 -19.7692)" gradientUnits="userSpaceOnUse">
<stop stop-color="#BDBDBD"/>
<stop offset="0.04" stop-color="#9B9B9B"/>
<stop offset="0.08" stop-color="#777777"/>
<stop offset="0.14" stop-color="#575757"/>
<stop offset="0.19" stop-color="#3B3B3B"/>
<stop offset="0.26" stop-color="#252525"/>
<stop offset="0.34" stop-color="#141414"/>
<stop offset="0.43" stop-color="#090909"/>
<stop offset="0.57" stop-color="#020202"/>
<stop offset="0.94"/>
</radialGradient>
<radialGradient id="paint24_radial_479_518" cx="0" cy="0" r="1" gradientUnits="userSpaceOnUse" gradientTransform="translate(256.934 -32.1689) scale(671.206 272.687)">
<stop stop-color="white"/>
<stop offset="0.06" stop-color="#E1E1E1"/>
<stop offset="0.2" stop-color="#9F9F9F"/>
<stop offset="0.34" stop-color="#686868"/>
<stop offset="0.46" stop-color="#3D3D3D"/>
<stop offset="0.58" stop-color="#1E1E1E"/>
<stop offset="0.67" stop-color="#0B0B0B"/>
<stop offset="0.74" stop-color="#040404"/>
<stop offset="1"/>
</radialGradient>
<radialGradient id="paint25_radial_479_518" cx="0" cy="0" r="1" gradientUnits="userSpaceOnUse" gradientTransform="translate(256.933 -32.169) scale(309.615 125.786)">
<stop offset="0.27" stop-color="white"/>
<stop offset="0.31" stop-color="#E8E8E8"/>
<stop offset="0.43" stop-color="#A2A2A2"/>
<stop offset="0.55" stop-color="#686868"/>
<stop offset="0.66" stop-color="#3B3B3B"/>
<stop offset="0.75" stop-color="#1B1B1B"/>
<stop offset="0.83" stop-color="#070707"/>
<stop offset="0.88"/>
</radialGradient>
<clipPath id="clip0_479_518">
<rect width="624" height="412" fill="white"/>
</clipPath>
</defs>
</svg>
