<svg width="30" height="31" viewBox="0 0 30 31" fill="none" xmlns="http://www.w3.org/2000/svg">
<path d="M15.0001 30.5C23.2846 30.5 30.0001 23.7845 30.0001 15.5V5C30.0001 3.80653 29.526 2.66193 28.682 1.81802C27.8381 0.974106 26.6935 0.5 25.5001 0.5L15.7501 0.5V7.0805C15.7501 8.582 15.8416 10.1375 16.6291 11.4155C17.1928 12.3314 17.947 13.1153 18.8404 13.7141C19.7339 14.3129 20.7456 14.7124 21.8071 14.8857L22.0943 14.9323C22.2127 14.9727 22.3155 15.0492 22.3883 15.151C22.4611 15.2528 22.5003 15.3749 22.5003 15.5C22.5003 15.6251 22.4611 15.7472 22.3883 15.849C22.3155 15.9508 22.2127 16.0273 22.0943 16.0677L21.8071 16.1143C20.2562 16.3676 18.8241 17.1017 17.7129 18.2128C16.6017 19.324 15.8677 20.7561 15.6143 22.307L15.5678 22.5942C15.5273 22.7127 15.4508 22.8155 15.349 22.8883C15.2472 22.9611 15.1252 23.0002 15.0001 23.0002C14.8749 23.0002 14.7529 22.9611 14.6511 22.8883C14.5493 22.8155 14.4728 22.7127 14.4323 22.5942L14.3858 22.307C14.2125 21.2456 13.8129 20.2338 13.2141 19.3404C12.6153 18.447 11.8314 17.6928 10.9156 17.129C9.63757 16.3415 8.08207 16.25 6.58057 16.25H0.0180664C0.410316 24.1858 6.96757 30.5 15.0001 30.5Z" fill="white"/>
</svg>
