<svg width="43" height="41" viewBox="0 0 43 41" fill="none" xmlns="http://www.w3.org/2000/svg">
<path fill-rule="evenodd" clip-rule="evenodd" d="M24.0924 1.22426C22.5986 -0.268869 20.1773 -0.268378 18.6842 1.22537L6.22284 13.6918L6.21222 13.6887L6.17284 13.6929C6.18906 13.7007 6.20498 13.7084 6.22058 13.7162C4.0346 13.9452 3.10712 14.6021 3.09662 15.4457C3.10032 15.7595 3.22907 16.0984 3.46556 16.4502L3.45419 16.4616C5.44147 19.4589 15.2864 23.4128 22.2514 20.7339C17.0314 23.3439 4.73804 23.8612 1.12729 18.7936C0.343149 19.6419 0.0150691 20.7567 0.138619 21.828C1.09248 27.0854 11.7567 28.5197 22.421 20.9024L24.7287 23.2101C21.8571 26.1603 17.6154 43.2968 23.9181 40.6804C24.0676 40.5789 24.1945 40.4881 24.3671 40.3575L24.648 40.0923C24.6318 40.0963 24.6157 40.1001 24.5997 40.1039L41.4797 24.1682C43.047 22.6885 43.0825 20.2066 41.558 18.6827L24.0924 1.22426ZM22.2542 6.41755L22.8311 4.10986L23.408 6.41755L25.1388 6.99448L23.408 7.57142L22.8311 9.87912L22.2542 7.57142L20.5234 6.99448L22.2542 6.41755ZM15.1133 13.9509L15.4979 12.4124L15.8825 13.9509L17.0364 14.3355L15.8825 14.7201L15.4979 16.2586L15.1133 14.7201L13.9595 14.3355L15.1133 13.9509ZM28.5089 26.9278L28.1243 28.4662L26.9705 28.8509L28.1243 29.2355L28.5089 30.7739L28.8935 29.2355L30.0474 28.8509L28.8935 28.4662L28.5089 26.9278Z" fill="white"/>
</svg>
