<svg width="34" height="34" viewBox="0 0 34 34" fill="none" xmlns="http://www.w3.org/2000/svg">
<path fill-rule="evenodd" clip-rule="evenodd" d="M7.17649 3.727C5.99009 4.55657 4.91727 5.53739 3.98596 6.64149C7.79172 6.28817 12.6268 6.8651 18.2403 9.67187C24.2347 12.669 29.0617 12.7703 32.4211 12.1224C32.1163 11.1995 31.7325 10.3125 31.278 9.46928C27.4324 9.87487 22.5024 9.33801 16.7569 6.46534C13.1084 4.64111 9.89237 3.88966 7.17649 3.727ZM29.0316 6.27184C25.9947 2.87877 21.5814 0.743408 16.6693 0.743408C15.2268 0.743408 13.8272 0.927594 12.4929 1.27371C14.3 1.7668 16.2198 2.48818 18.2403 3.49846C22.4468 5.6017 26.0785 6.2789 29.0316 6.27184ZM33.1393 15.3618C29.0809 16.1632 23.4766 15.9986 16.7569 12.6387C10.4747 9.49764 5.47459 9.5372 2.10234 10.2866C1.92828 10.3253 1.75831 10.3659 1.59245 10.4082C1.15094 11.3684 0.79851 12.3781 0.54564 13.4266C0.815719 13.3545 1.0948 13.2859 1.38275 13.2219C5.47387 12.3128 11.2543 12.3522 18.2403 15.8453C24.5226 18.9864 29.5226 18.9468 32.8949 18.1974C33.0105 18.1718 33.1243 18.1452 33.2363 18.1179C33.2485 17.8564 33.2547 17.5933 33.2547 17.3288C33.2547 16.6633 33.2155 16.0069 33.1393 15.3618ZM32.6948 21.618C28.6757 22.3206 23.2346 22.0509 16.7569 18.8121C10.4747 15.671 5.47459 15.7106 2.10234 16.46C1.3538 16.6263 0.680426 16.8289 0.0864141 17.0427C0.0847946 17.1379 0.0839844 17.2332 0.0839844 17.3288C0.0839844 26.4886 7.50949 33.9141 16.6693 33.9141C24.3459 33.9141 30.8044 28.6988 32.6948 21.618Z" fill="white"/>
</svg>
